<svg width="460" height="41" viewBox="0 0 460 41" fill="none" xmlns="http://www.w3.org/2000/svg">
<path d="M3.03371 29V1.7H16.4887C19.0627 1.7 21.1037 2.376 22.6117 3.728C24.1197 5.054 24.8737 6.718 24.8737 8.72C24.8737 10.722 24.1847 12.256 22.8067 13.322C22.2347 13.764 21.5587 14.115 20.7787 14.375V14.57C21.7407 14.778 22.5857 15.129 23.3137 15.623C25.0037 16.845 25.8487 18.704 25.8487 21.2C25.8487 23.514 25.0167 25.399 23.3527 26.855C21.6887 28.285 19.3357 29 16.2937 29H3.03371ZM7.51871 12.815H16.2937C17.5417 12.815 18.5037 12.503 19.1797 11.879C19.8557 11.255 20.1937 10.384 20.1937 9.266C20.1937 8.278 19.8557 7.485 19.1797 6.887C18.5037 6.289 17.5417 5.99 16.2937 5.99H7.51871V12.815ZM7.51871 24.71H16.0987C19.4787 24.71 21.1687 23.41 21.1687 20.81C21.1687 18.21 19.4787 16.91 16.0987 16.91H7.51871V24.71ZM31.6238 26.543C29.8558 24.619 28.9718 22.123 28.9718 19.055C28.9718 15.987 29.8558 13.504 31.6238 11.606C33.4178 9.682 35.6538 8.72 38.3318 8.72C40.0218 8.72 41.5688 9.214 42.9728 10.202C43.5708 10.618 44.1038 11.099 44.5718 11.645H44.7668V9.11H48.8618V29H44.7668V26.27H44.5718C44.1818 26.816 43.6488 27.336 42.9728 27.83C41.5688 28.87 40.0218 29.39 38.3318 29.39C35.6538 29.39 33.4178 28.441 31.6238 26.543ZM34.8218 14.141C33.7818 15.285 33.2618 16.923 33.2618 19.055C33.2618 21.187 33.7818 22.825 34.8218 23.969C35.8618 25.113 37.2918 25.685 39.1118 25.685C40.8278 25.685 42.1928 25.113 43.2068 23.969C44.2468 22.799 44.7668 21.161 44.7668 19.055C44.7668 16.949 44.2468 15.324 43.2068 14.18C42.1928 13.01 40.8278 12.425 39.1118 12.425C37.2918 12.425 35.8618 12.997 34.8218 14.141ZM53.5265 29V9.11H57.6215V25.295H64.0565V9.11H68.1515V25.295H74.5865V9.11H78.6815V29H53.5265ZM94.2785 29V9.11H112.023V29H107.928V12.815H98.3735V29H94.2785ZM116.711 36.41V9.11H120.806V11.645H121.001C121.469 11.099 122.002 10.618 122.6 10.202C124.004 9.214 125.551 8.72 127.241 8.72C129.919 8.72 132.142 9.682 133.91 11.606C135.704 13.504 136.601 15.987 136.601 19.055C136.601 22.123 135.704 24.619 133.91 26.543C132.142 28.441 129.919 29.39 127.241 29.39C125.525 29.39 123.978 28.909 122.6 27.947C121.976 27.505 121.443 27.011 121.001 26.465H120.806V36.41H116.711ZM122.327 14.18C121.313 15.324 120.806 16.949 120.806 19.055C120.806 21.161 121.313 22.799 122.327 23.969C123.367 25.113 124.745 25.685 126.461 25.685C128.281 25.685 129.711 25.113 130.751 23.969C131.791 22.825 132.311 21.187 132.311 19.055C132.311 16.923 131.791 15.285 130.751 14.141C129.711 12.997 128.281 12.425 126.461 12.425C124.745 12.425 123.367 13.01 122.327 14.18ZM141.89 26.426C139.914 24.424 138.926 21.967 138.926 19.055C138.926 16.143 139.914 13.699 141.89 11.723C143.892 9.721 146.349 8.72 149.261 8.72C152.173 8.72 154.617 9.721 156.593 11.723C158.595 13.699 159.596 16.143 159.596 19.055C159.596 21.967 158.595 24.424 156.593 26.426C154.617 28.402 152.173 29.39 149.261 29.39C146.349 29.39 143.892 28.402 141.89 26.426ZM144.893 14.258C143.775 15.454 143.216 17.053 143.216 19.055C143.216 21.057 143.775 22.669 144.893 23.891C146.011 25.087 147.467 25.685 149.261 25.685C151.055 25.685 152.511 25.087 153.629 23.891C154.747 22.669 155.306 21.057 155.306 19.055C155.306 17.053 154.747 15.454 153.629 14.258C152.511 13.036 151.055 12.425 149.261 12.425C147.467 12.425 146.011 13.036 144.893 14.258ZM163.1 29V9.11H167.195V25.295H173.63V9.11H177.725V25.295H184.16V9.11H188.255V29H163.1ZM190.776 29L196.236 9.11H205.011L210.471 29H206.181L201.891 12.815H199.356L195.066 29H190.776ZM230.932 29V9.11H235.027V29H230.932ZM212.992 29V9.11H217.087V15.74H221.182C223.47 15.74 225.303 16.364 226.681 17.612C228.085 18.86 228.787 20.446 228.787 22.37C228.787 24.294 228.085 25.88 226.681 27.128C225.303 28.376 223.47 29 221.182 29H212.992ZM217.087 25.295H221.182C222.248 25.295 223.067 25.035 223.639 24.515C224.211 23.995 224.497 23.28 224.497 22.37C224.497 21.46 224.211 20.745 223.639 20.225C223.067 19.705 222.248 19.445 221.182 19.445H217.087V25.295ZM239.691 29V9.11H243.786V22.37L243.747 22.76H244.137L253.146 9.11H257.631V29H253.536V15.74L253.575 15.35H253.185L244.176 29H239.691ZM242.616 1.31H245.931C245.931 2.74 246.841 3.455 248.661 3.455C250.481 3.455 251.391 2.74 251.391 1.31H254.706C254.706 2.844 254.186 4.079 253.146 5.015C252.132 5.925 250.637 6.38 248.661 6.38C246.685 6.38 245.177 5.925 244.137 5.015C243.123 4.079 242.616 2.844 242.616 1.31ZM273.244 29V9.11H290.989V29H286.894V12.815H277.339V29H273.244ZM295.677 36.41V9.11H299.772V11.645H299.967C300.435 11.099 300.968 10.618 301.566 10.202C302.97 9.214 304.517 8.72 306.207 8.72C308.885 8.72 311.108 9.682 312.876 11.606C314.67 13.504 315.567 15.987 315.567 19.055C315.567 22.123 314.67 24.619 312.876 26.543C311.108 28.441 308.885 29.39 306.207 29.39C304.491 29.39 302.944 28.909 301.566 27.947C300.942 27.505 300.409 27.011 299.967 26.465H299.772V36.41H295.677ZM301.293 14.18C300.279 15.324 299.772 16.949 299.772 19.055C299.772 21.161 300.279 22.799 301.293 23.969C302.333 25.113 303.711 25.685 305.427 25.685C307.247 25.685 308.677 25.113 309.717 23.969C310.757 22.825 311.277 21.187 311.277 19.055C311.277 16.923 310.757 15.285 309.717 14.141C308.677 12.997 307.247 12.425 305.427 12.425C303.711 12.425 302.333 13.01 301.293 14.18ZM319.062 29V9.11H323.157V22.37L323.118 22.76H323.508L332.517 9.11H337.002V29H332.907V15.74L332.946 15.35H332.556L323.547 29H319.062ZM340.125 22.565H344.22C344.324 23.085 344.571 23.605 344.961 24.125C345.793 25.165 347.106 25.685 348.9 25.685C350.304 25.685 351.331 25.451 351.981 24.983C352.657 24.515 352.995 23.904 352.995 23.15C352.995 22.396 352.657 21.785 351.981 21.317C351.331 20.849 350.304 20.615 348.9 20.615H346.755V17.105H348.9C351.37 17.105 352.605 16.325 352.605 14.765C352.605 14.115 352.28 13.569 351.63 13.127C350.98 12.659 350.005 12.425 348.705 12.425C347.327 12.425 346.235 12.854 345.429 13.712C345.143 14.05 344.935 14.466 344.805 14.96H340.71C340.996 13.764 341.464 12.724 342.114 11.84C343.622 9.76 345.884 8.72 348.9 8.72C351.396 8.72 353.32 9.24 354.672 10.28C356.024 11.32 356.7 12.62 356.7 14.18C356.7 15.662 356.115 16.806 354.945 17.612C354.477 17.976 353.892 18.262 353.19 18.47V18.626C353.892 18.782 354.542 19.055 355.14 19.445C356.44 20.329 357.09 21.629 357.09 23.345C357.09 25.087 356.375 26.53 354.945 27.674C353.541 28.818 351.526 29.39 348.9 29.39C345.416 29.39 342.933 28.259 341.451 25.997C340.749 24.931 340.307 23.787 340.125 22.565ZM360.804 13.595C360.284 13.075 360.024 12.425 360.024 11.645C360.024 10.865 360.284 10.215 360.804 9.695C361.324 9.175 361.974 8.915 362.754 8.915C363.534 8.915 364.184 9.175 364.704 9.695C365.224 10.215 365.484 10.865 365.484 11.645C365.484 12.425 365.224 13.075 364.704 13.595C364.184 14.115 363.534 14.375 362.754 14.375C361.974 14.375 361.324 14.115 360.804 13.595ZM360.804 28.805C360.284 28.285 360.024 27.635 360.024 26.855C360.024 26.075 360.284 25.425 360.804 24.905C361.324 24.385 361.974 24.125 362.754 24.125C363.534 24.125 364.184 24.385 364.704 24.905C365.224 25.425 365.484 26.075 365.484 26.855C365.484 27.635 365.224 28.285 364.704 28.805C364.184 29.325 363.534 29.585 362.754 29.585C361.974 29.585 361.324 29.325 360.804 28.805ZM379.524 21.395H384.204C384.412 22.201 384.763 22.89 385.257 23.462C386.401 24.814 388.065 25.49 390.249 25.49C391.991 25.49 393.369 25.022 394.383 24.086C395.397 23.15 395.904 21.928 395.904 20.42C395.904 18.834 395.397 17.56 394.383 16.598C393.369 15.636 391.991 15.155 390.249 15.155C388.637 15.155 387.272 15.584 386.154 16.442C385.712 16.78 385.322 17.196 384.984 17.69H380.694L381.864 1.7H398.439V5.99H385.569L384.984 13.01H385.179C385.595 12.594 386.076 12.243 386.622 11.957C387.844 11.229 389.313 10.865 391.029 10.865C393.759 10.865 396.034 11.775 397.854 13.595C399.674 15.415 400.584 17.69 400.584 20.42C400.584 23.098 399.622 25.334 397.698 27.128C395.8 28.896 393.317 29.78 390.249 29.78C386.245 29.78 383.268 28.389 381.318 25.607C380.486 24.385 379.888 22.981 379.524 21.395ZM407.418 25.724C404.948 23.02 403.713 19.562 403.713 15.35C403.713 11.138 404.948 7.68 407.418 4.976C409.888 2.272 412.878 0.919999 416.388 0.919999C419.898 0.919999 422.888 2.272 425.358 4.976C427.828 7.68 429.063 11.138 429.063 15.35C429.063 19.562 427.828 23.02 425.358 25.724C422.888 28.428 419.898 29.78 416.388 29.78C412.878 29.78 409.888 28.428 407.418 25.724ZM410.616 7.862C409.134 9.63 408.393 12.126 408.393 15.35C408.393 18.574 409.134 21.07 410.616 22.838C412.124 24.606 414.048 25.49 416.388 25.49C418.728 25.49 420.639 24.606 422.121 22.838C423.629 21.07 424.383 18.574 424.383 15.35C424.383 12.126 423.629 9.63 422.121 7.862C420.639 6.094 418.728 5.21 416.388 5.21C414.048 5.21 412.124 6.094 410.616 7.862ZM436.287 25.724C433.817 23.02 432.582 19.562 432.582 15.35C432.582 11.138 433.817 7.68 436.287 4.976C438.757 2.272 441.747 0.919999 445.257 0.919999C448.767 0.919999 451.757 2.272 454.227 4.976C456.697 7.68 457.932 11.138 457.932 15.35C457.932 19.562 456.697 23.02 454.227 25.724C451.757 28.428 448.767 29.78 445.257 29.78C441.747 29.78 438.757 28.428 436.287 25.724ZM439.485 7.862C438.003 9.63 437.262 12.126 437.262 15.35C437.262 18.574 438.003 21.07 439.485 22.838C440.993 24.606 442.917 25.49 445.257 25.49C447.597 25.49 449.508 24.606 450.99 22.838C452.498 21.07 453.252 18.574 453.252 15.35C453.252 12.126 452.498 9.63 450.99 7.862C449.508 6.094 447.597 5.21 445.257 5.21C442.917 5.21 440.993 6.094 439.485 7.862Z" fill="white"/>
<path d="M0.303711 38.75H459.687V40.7H0.303711V38.75Z" fill="white"/>
</svg>
