<svg width="917" height="96" viewBox="0 0 917 96" fill="none" xmlns="http://www.w3.org/2000/svg">
<g filter="url(#filter0_d_3_280)">
<path d="M124.088 28V-1.90735e-06H135.488C138.528 -1.90735e-06 140.955 0.839998 142.768 2.52C144.582 4.2 145.488 6.36 145.488 9C145.488 11.64 144.582 13.8 142.768 15.48C140.955 17.16 138.528 18 135.488 18H126.688V28H124.088ZM126.688 15.6H135.488C137.862 15.6 139.688 15.0133 140.968 13.84C142.248 12.64 142.888 11.0267 142.888 9C142.888 6.97333 142.248 5.37333 140.968 4.2C139.688 3 137.862 2.4 135.488 2.4H126.688V15.6ZM151.184 25.44C149.264 23.4667 148.304 20.9867 148.304 18C148.304 15.0133 149.264 12.5333 151.184 10.56C153.104 8.58667 155.477 7.6 158.304 7.6C161.104 7.6 163.464 8.58667 165.384 10.56C167.331 12.5067 168.304 14.92 168.304 17.8V18.8H150.704C150.811 20.9067 151.584 22.6667 153.024 24.08C154.464 25.4933 156.224 26.2 158.304 26.2C160.597 26.2 162.477 25.4667 163.944 24C164.637 23.36 165.157 22.6267 165.504 21.8H167.904C167.424 23.0533 166.744 24.16 165.864 25.12C163.891 27.3067 161.371 28.4 158.304 28.4C155.477 28.4 153.104 27.4133 151.184 25.44ZM150.704 16.6H165.704C165.491 14.6533 164.691 13.04 163.304 11.76C161.944 10.4533 160.277 9.8 158.304 9.8C156.331 9.8 154.651 10.44 153.264 11.72C151.877 13 151.024 14.6267 150.704 16.6ZM173.298 28V8H186.698V10.2H175.698V28H173.298ZM190.29 28V8H192.69V24.2L192.65 24.6H192.69L204.29 8H207.09V28H204.69V11.8L204.73 11.4H204.69L193.09 28H190.29ZM214.933 25.44C213.04 23.44 212.093 20.96 212.093 18C212.093 15.04 213.04 12.5733 214.933 10.6C216.853 8.6 219.173 7.6 221.893 7.6C225.066 7.6 227.586 8.77333 229.453 11.12C230.28 12.1333 230.893 13.2933 231.293 14.6H228.893C228.52 13.6667 228.026 12.8667 227.413 12.2C226.026 10.6 224.186 9.8 221.893 9.8C219.866 9.8 218.12 10.5867 216.653 12.16C215.213 13.7067 214.493 15.6533 214.493 18C214.493 20.3467 215.213 22.3067 216.653 23.88C218.12 25.4267 219.866 26.2 221.893 26.2C224.213 26.2 226.106 25.3333 227.573 23.6C228.266 22.8 228.773 21.9333 229.093 21H231.493C231.093 22.36 230.466 23.6 229.613 24.72C227.586 27.1733 225.013 28.4 221.893 28.4C219.173 28.4 216.853 27.4133 214.933 25.44ZM233.305 10.2V8H250.105V10.2H242.905V28H240.505V10.2H233.305ZM253.493 35.6V8H255.893V12H255.933C256.36 10.9333 257.253 9.93333 258.613 9C259.973 8.06667 261.6 7.6 263.493 7.6C266.16 7.6 268.426 8.6 270.293 10.6C272.16 12.5733 273.093 15.04 273.093 18C273.093 20.96 272.16 23.44 270.293 25.44C268.426 27.4133 266.16 28.4 263.493 28.4C261.6 28.4 259.973 27.9333 258.613 27C257.253 26.0667 256.36 25.0667 255.933 24H255.893V35.6H253.493ZM258.093 12.16C256.626 13.7067 255.893 15.6533 255.893 18C255.893 20.3467 256.626 22.3067 258.093 23.88C259.586 25.4267 261.32 26.2 263.293 26.2C265.32 26.2 267.053 25.4267 268.493 23.88C269.96 22.3067 270.693 20.3467 270.693 18C270.693 15.6533 269.96 13.7067 268.493 12.16C267.053 10.5867 265.32 9.8 263.293 9.8C261.32 9.8 259.586 10.5867 258.093 12.16ZM278.102 28V8H280.502V24.2L280.462 24.6H280.502L292.102 8H294.902V28H292.502V11.8L292.542 11.4H292.502L280.902 28H278.102ZM301.305 35.6V8H303.705V12H303.745C304.172 10.9333 305.065 9.93333 306.425 9C307.785 8.06667 309.412 7.6 311.305 7.6C313.972 7.6 316.239 8.6 318.105 10.6C319.972 12.5733 320.905 15.04 320.905 18C320.905 20.96 319.972 23.44 318.105 25.44C316.239 27.4133 313.972 28.4 311.305 28.4C309.412 28.4 307.785 27.9333 306.425 27C305.065 26.0667 304.172 25.0667 303.745 24H303.705V35.6H301.305ZM305.905 12.16C304.439 13.7067 303.705 15.6533 303.705 18C303.705 20.3467 304.439 22.3067 305.905 23.88C307.399 25.4267 309.132 26.2 311.105 26.2C313.132 26.2 314.865 25.4267 316.305 23.88C317.772 22.3067 318.505 20.3467 318.505 18C318.505 15.6533 317.772 13.7067 316.305 12.16C314.865 10.5867 313.132 9.8 311.105 9.8C309.132 9.8 307.399 10.5867 305.905 12.16ZM323.129 8H325.729L330.329 25.8H334.129L339.329 8H341.929L333.729 35.6H331.129L333.529 28H328.529L323.129 8ZM345.524 28V8H347.924V24.2L347.884 24.6H347.924L359.524 8H362.324V28H359.924V11.8L359.964 11.4H359.924L348.324 28H345.524ZM348.324 0.399998H350.524C350.524 1.22666 350.818 1.90666 351.404 2.44C351.991 2.94667 352.831 3.2 353.924 3.2C355.018 3.2 355.858 2.94667 356.444 2.44C357.031 1.90666 357.324 1.22666 357.324 0.399998H359.524C359.524 1.73333 359.004 2.86667 357.964 3.8C356.924 4.73333 355.578 5.2 353.924 5.2C352.271 5.2 350.924 4.73333 349.884 3.8C348.844 2.86667 348.324 1.73333 348.324 0.399998ZM365.727 10.2V8H382.527V10.2H375.327V28H372.927V10.2H365.727ZM387.395 25.44C385.475 23.4667 384.515 20.9867 384.515 18C384.515 15.0133 385.475 12.5333 387.395 10.56C389.315 8.58667 391.688 7.6 394.515 7.6C397.315 7.6 399.675 8.58667 401.595 10.56C403.542 12.5067 404.515 14.92 404.515 17.8V18.8H386.915C387.022 20.9067 387.795 22.6667 389.235 24.08C390.675 25.4933 392.435 26.2 394.515 26.2C396.808 26.2 398.688 25.4667 400.155 24C400.848 23.36 401.368 22.6267 401.715 21.8H404.115C403.635 23.0533 402.955 24.16 402.075 25.12C400.102 27.3067 397.582 28.4 394.515 28.4C391.688 28.4 389.315 27.4133 387.395 25.44ZM386.915 16.6H401.915C401.702 14.6533 400.902 13.04 399.515 11.76C398.155 10.4533 396.488 9.8 394.515 9.8C392.542 9.8 390.862 10.44 389.475 11.72C388.088 13 387.235 14.6267 386.915 16.6ZM410.949 25.44C409.055 23.44 408.109 20.96 408.109 18C408.109 15.04 409.055 12.5733 410.949 10.6C412.869 8.6 415.189 7.6 417.909 7.6C421.082 7.6 423.602 8.77333 425.469 11.12C426.295 12.1333 426.909 13.2933 427.309 14.6H424.909C424.535 13.6667 424.042 12.8667 423.429 12.2C422.042 10.6 420.202 9.8 417.909 9.8C415.882 9.8 414.135 10.5867 412.669 12.16C411.229 13.7067 410.509 15.6533 410.509 18C410.509 20.3467 411.229 22.3067 412.669 23.88C414.135 25.4267 415.882 26.2 417.909 26.2C420.229 26.2 422.122 25.3333 423.589 23.6C424.282 22.8 424.789 21.9333 425.109 21H427.509C427.109 22.36 426.482 23.6 425.629 24.72C423.602 27.1733 421.029 28.4 417.909 28.4C415.189 28.4 412.869 27.4133 410.949 25.44ZM432.321 28V8H434.721V15.2H440.921C443.081 15.2 444.814 15.8133 446.121 17.04C447.454 18.24 448.121 19.76 448.121 21.6C448.121 23.44 447.454 24.9733 446.121 26.2C444.814 27.4 443.081 28 440.921 28H432.321ZM434.721 25.8H440.921C442.414 25.8 443.588 25.4133 444.441 24.64C445.294 23.84 445.721 22.8267 445.721 21.6C445.721 20.3733 445.294 19.3733 444.441 18.6C443.588 17.8 442.414 17.4 440.921 17.4H434.721V25.8ZM463.727 28V8H466.127V24.2L466.087 24.6H466.127L477.727 8H480.527V28H478.127V11.8L478.167 11.4H478.127L466.527 28H463.727ZM498.141 28V8H500.541V16.4H505.341L511.941 8H514.741L507.341 17.6L515.341 28H512.541L505.341 18.6H500.541V28H498.141ZM518.727 35.6V8H521.127V12H521.167C521.594 10.9333 522.487 9.93333 523.847 9C525.207 8.06667 526.834 7.6 528.727 7.6C531.394 7.6 533.661 8.6 535.527 10.6C537.394 12.5733 538.327 15.04 538.327 18C538.327 20.96 537.394 23.44 535.527 25.44C533.661 27.4133 531.394 28.4 528.727 28.4C526.834 28.4 525.207 27.9333 523.847 27C522.487 26.0667 521.594 25.0667 521.167 24H521.127V35.6H518.727ZM523.327 12.16C521.861 13.7067 521.127 15.6533 521.127 18C521.127 20.3467 521.861 22.3067 523.327 23.88C524.821 25.4267 526.554 26.2 528.527 26.2C530.554 26.2 532.287 25.4267 533.727 23.88C535.194 22.3067 535.927 20.3467 535.927 18C535.927 15.6533 535.194 13.7067 533.727 12.16C532.287 10.5867 530.554 9.8 528.527 9.8C526.554 9.8 524.821 10.5867 523.327 12.16ZM540.551 8H543.151L547.751 25.8H551.551L556.751 8H559.351L551.151 35.6H548.551L550.951 28H545.951L540.551 8ZM559.946 10.2V8H576.746V10.2H569.546V28H567.146V10.2H559.946ZM580.134 28V8H582.534V24.2L582.494 24.6H582.534L594.134 8H596.934V28H594.534V11.8L594.574 11.4H594.534L582.934 28H580.134ZM600.337 10.2V8H617.137V10.2H609.937V28H607.537V10.2H600.337ZM622.004 25.44C620.084 23.4667 619.124 20.9867 619.124 18C619.124 15.0133 620.084 12.5333 622.004 10.56C623.924 8.58667 626.298 7.6 629.124 7.6C631.924 7.6 634.284 8.58667 636.204 10.56C638.151 12.5067 639.124 14.92 639.124 17.8V18.8H621.524C621.631 20.9067 622.404 22.6667 623.844 24.08C625.284 25.4933 627.044 26.2 629.124 26.2C631.418 26.2 633.298 25.4667 634.764 24C635.458 23.36 635.978 22.6267 636.324 21.8H638.724C638.244 23.0533 637.564 24.16 636.684 25.12C634.711 27.3067 632.191 28.4 629.124 28.4C626.298 28.4 623.924 27.4133 622.004 25.44ZM621.524 16.6H636.524C636.311 14.6533 635.511 13.04 634.124 11.76C632.764 10.4533 631.098 9.8 629.124 9.8C627.151 9.8 625.471 10.44 624.084 11.72C622.698 13 621.844 14.6267 621.524 16.6ZM655.329 28V8H657.729V16.4H662.529L669.129 8H671.929L664.529 17.6L672.529 28H669.729L662.529 18.6H657.729V28H655.329ZM676.654 25.44C674.707 23.4667 673.734 20.9867 673.734 18C673.734 15.0133 674.707 12.5333 676.654 10.56C678.6 8.58667 681.027 7.6 683.934 7.6C686.84 7.6 689.267 8.58667 691.214 10.56C693.16 12.5333 694.134 15.0133 694.134 18C694.134 20.9867 693.16 23.4667 691.214 25.44C689.267 27.4133 686.84 28.4 683.934 28.4C681.027 28.4 678.6 27.4133 676.654 25.44ZM678.374 12.12C676.88 13.6667 676.134 15.6267 676.134 18C676.134 20.3733 676.88 22.3333 678.374 23.88C679.867 25.4267 681.72 26.2 683.934 26.2C686.147 26.2 688 25.4267 689.494 23.88C690.987 22.3333 691.734 20.3733 691.734 18C691.734 15.6267 690.987 13.6667 689.494 12.12C688 10.5733 686.147 9.8 683.934 9.8C681.72 9.8 679.867 10.5733 678.374 12.12ZM696.718 28L702.318 8H710.118L715.718 28H713.318L708.318 10.2H704.118L699.118 28H696.718ZM721.184 25.44C719.264 23.4667 718.304 20.9867 718.304 18C718.304 15.0133 719.264 12.5333 721.184 10.56C723.104 8.58667 725.477 7.6 728.304 7.6C731.104 7.6 733.464 8.58667 735.384 10.56C737.331 12.5067 738.304 14.92 738.304 17.8V18.8H720.704C720.811 20.9067 721.584 22.6667 723.024 24.08C724.464 25.4933 726.224 26.2 728.304 26.2C730.597 26.2 732.477 25.4667 733.944 24C734.637 23.36 735.157 22.6267 735.504 21.8H737.904C737.424 23.0533 736.744 24.16 735.864 25.12C733.891 27.3067 731.371 28.4 728.304 28.4C725.477 28.4 723.104 27.4133 721.184 25.44ZM720.704 16.6H735.704C735.491 14.6533 734.691 13.04 733.304 11.76C731.944 10.4533 730.277 9.8 728.304 9.8C726.331 9.8 724.651 10.44 723.264 11.72C721.877 13 721.024 14.6267 720.704 16.6ZM744.738 25.44C742.844 23.44 741.898 20.96 741.898 18C741.898 15.04 742.844 12.5733 744.738 10.6C746.658 8.6 748.978 7.6 751.698 7.6C754.871 7.6 757.391 8.77333 759.258 11.12C760.084 12.1333 760.698 13.2933 761.098 14.6H758.698C758.324 13.6667 757.831 12.8667 757.218 12.2C755.831 10.6 753.991 9.8 751.698 9.8C749.671 9.8 747.924 10.5867 746.458 12.16C745.018 13.7067 744.298 15.6533 744.298 18C744.298 20.3467 745.018 22.3067 746.458 23.88C747.924 25.4267 749.671 26.2 751.698 26.2C754.018 26.2 755.911 25.3333 757.378 23.6C758.071 22.8 758.578 21.9333 758.898 21H761.298C760.898 22.36 760.271 23.6 759.418 24.72C757.391 27.1733 754.818 28.4 751.698 28.4C748.978 28.4 746.658 27.4133 744.738 25.44ZM767.63 25.44C765.683 23.4667 764.71 20.9867 764.71 18C764.71 15.0133 765.683 12.5333 767.63 10.56C769.577 8.58667 772.003 7.6 774.91 7.6C777.817 7.6 780.243 8.58667 782.19 10.56C784.137 12.5333 785.11 15.0133 785.11 18C785.11 20.9867 784.137 23.4667 782.19 25.44C780.243 27.4133 777.817 28.4 774.91 28.4C772.003 28.4 769.577 27.4133 767.63 25.44ZM769.35 12.12C767.857 13.6667 767.11 15.6267 767.11 18C767.11 20.3733 767.857 22.3333 769.35 23.88C770.843 25.4267 772.697 26.2 774.91 26.2C777.123 26.2 778.977 25.4267 780.47 23.88C781.963 22.3333 782.71 20.3733 782.71 18C782.71 15.6267 781.963 13.6667 780.47 12.12C778.977 10.5733 777.123 9.8 774.91 9.8C772.697 9.8 770.843 10.5733 769.35 12.12ZM788.695 26.6C788.695 25.9867 788.868 25.5067 789.215 25.16C789.588 24.7867 790.081 24.6 790.695 24.6C791.308 24.6 791.788 24.7867 792.135 25.16C792.508 25.5067 792.695 25.9867 792.695 26.6C792.695 27.2133 792.508 27.6933 792.135 28.04C791.788 28.4133 791.308 28.6 790.695 28.6C790.081 28.6 789.588 28.4133 789.215 28.04C788.868 27.6667 788.695 27.1867 788.695 26.6ZM4.88906 80V52H26.2891V80H23.6891V54.4H7.48906V80H4.88906ZM34.6028 77.44C32.6561 75.4667 31.6828 72.9867 31.6828 70C31.6828 67.0133 32.6561 64.5333 34.6028 62.56C36.5495 60.5867 38.9761 59.6 41.8828 59.6C44.7895 59.6 47.2161 60.5867 49.1628 62.56C51.1095 64.5333 52.0828 67.0133 52.0828 70C52.0828 72.9867 51.1095 75.4667 49.1628 77.44C47.2161 79.4133 44.7895 80.4 41.8828 80.4C38.9761 80.4 36.5495 79.4133 34.6028 77.44ZM36.3228 64.12C34.8295 65.6667 34.0828 67.6267 34.0828 70C34.0828 72.3733 34.8295 74.3333 36.3228 75.88C37.8161 77.4267 39.6695 78.2 41.8828 78.2C44.0961 78.2 45.9495 77.4267 47.4428 75.88C48.9361 74.3333 49.6828 72.3733 49.6828 70C49.6828 67.6267 48.9361 65.6667 47.4428 64.12C45.9495 62.5733 44.0961 61.8 41.8828 61.8C39.6695 61.8 37.8161 62.5733 36.3228 64.12ZM54.6672 80L60.2672 60H68.0672L73.6672 80H71.2672L66.2672 62.2H62.0672L57.0672 80H54.6672ZM74.8672 60H77.4672L82.0672 77.8H85.8672L91.0672 60H93.6672L85.4672 87.6H82.8672L85.2672 80H80.2672L74.8672 60ZM96.6625 67V60H99.0625V67C99.0625 70.2 100.729 71.8 104.062 71.8C105.636 71.8 107.143 71.5067 108.583 70.92C109.303 70.6 109.863 70.2933 110.263 70V60H112.663V80H110.263V72.2C109.863 72.4933 109.303 72.8 108.583 73.12C107.143 73.7067 105.636 74 104.062 74C101.769 74 99.9558 73.3733 98.6225 72.12C97.3158 70.84 96.6625 69.1333 96.6625 67ZM119.059 80V60H121.459V76.2L121.419 76.6H121.459L133.059 60H135.859V80H133.459V63.8L133.499 63.4H133.459L121.859 80H119.059ZM139.263 62.2V60H156.063V62.2H148.863V80H146.463V62.2H139.263ZM160.93 77.44C159.01 75.4667 158.05 72.9867 158.05 70C158.05 67.0133 159.01 64.5333 160.93 62.56C162.85 60.5867 165.223 59.6 168.05 59.6C170.85 59.6 173.21 60.5867 175.13 62.56C177.077 64.5067 178.05 66.92 178.05 69.8V70.8H160.45C160.557 72.9067 161.33 74.6667 162.77 76.08C164.21 77.4933 165.97 78.2 168.05 78.2C170.343 78.2 172.223 77.4667 173.69 76C174.383 75.36 174.903 74.6267 175.25 73.8H177.65C177.17 75.0533 176.49 76.16 175.61 77.12C173.637 79.3067 171.117 80.4 168.05 80.4C165.223 80.4 162.85 79.4133 160.93 77.44ZM160.45 68.6H175.45C175.237 66.6533 174.437 65.04 173.05 63.76C171.69 62.4533 170.023 61.8 168.05 61.8C166.077 61.8 164.397 62.44 163.01 63.72C161.623 65 160.77 66.6267 160.45 68.6ZM193.055 68.6C193.055 62.7867 194.108 58.5733 196.215 55.96C198.321 53.32 201.401 52 205.455 52H210.455V54.2H205.655C202.481 54.2 200.055 55.1067 198.375 56.92C196.695 58.7067 195.708 61.5333 195.415 65.4H195.455C195.908 64.68 196.468 64.0533 197.135 63.52C198.681 62.24 200.588 61.6 202.855 61.6C205.361 61.6 207.521 62.52 209.335 64.36C211.148 66.2 212.055 68.4133 212.055 71C212.055 73.6133 211.121 75.84 209.255 77.68C207.415 79.4933 205.148 80.4 202.455 80.4C199.548 80.4 197.255 79.4133 195.575 77.44C193.895 75.44 193.055 72.4933 193.055 68.6ZM195.455 70.52C195.455 72.8133 196.108 74.6667 197.415 76.08C198.748 77.4933 200.428 78.2 202.455 78.2C204.455 78.2 206.148 77.4933 207.535 76.08C208.948 74.6667 209.655 72.9467 209.655 70.92C209.655 68.9467 208.948 67.2667 207.535 65.88C206.148 64.4933 204.455 63.8 202.455 63.8C200.481 63.8 198.815 64.4533 197.455 65.76C196.121 67.0667 195.455 68.6533 195.455 70.52ZM218.118 77.44C216.198 75.4667 215.238 72.9867 215.238 70C215.238 67.0133 216.198 64.5333 218.118 62.56C220.038 60.5867 222.411 59.6 225.238 59.6C228.038 59.6 230.398 60.5867 232.318 62.56C234.264 64.5067 235.238 66.92 235.238 69.8V70.8H217.638C217.744 72.9067 218.518 74.6667 219.958 76.08C221.398 77.4933 223.158 78.2 225.238 78.2C227.531 78.2 229.411 77.4667 230.878 76C231.571 75.36 232.091 74.6267 232.438 73.8H234.838C234.358 75.0533 233.678 76.16 232.798 77.12C230.824 79.3067 228.304 80.4 225.238 80.4C222.411 80.4 220.038 79.4133 218.118 77.44ZM217.638 68.6H232.638C232.424 66.6533 231.624 65.04 230.238 63.76C228.878 62.4533 227.211 61.8 225.238 61.8C223.264 61.8 221.584 62.44 220.198 63.72C218.811 65 217.958 66.6267 217.638 68.6ZM241.671 77.44C239.778 75.44 238.831 72.96 238.831 70C238.831 67.04 239.778 64.5733 241.671 62.6C243.591 60.6 245.911 59.6 248.631 59.6C251.805 59.6 254.325 60.7733 256.191 63.12C257.018 64.1333 257.631 65.2933 258.031 66.6H255.631C255.258 65.6667 254.765 64.8667 254.151 64.2C252.765 62.6 250.925 61.8 248.631 61.8C246.605 61.8 244.858 62.5867 243.391 64.16C241.951 65.7067 241.231 67.6533 241.231 70C241.231 72.3467 241.951 74.3067 243.391 75.88C244.858 77.4267 246.605 78.2 248.631 78.2C250.951 78.2 252.845 77.3333 254.311 75.6C255.005 74.8 255.511 73.9333 255.831 73H258.231C257.831 74.36 257.205 75.6 256.351 76.72C254.325 79.1733 251.751 80.4 248.631 80.4C245.911 80.4 243.591 79.4133 241.671 77.44ZM263.044 80V60H279.644V80H277.244V62.2H265.444V80H263.044ZM283.652 80L289.252 60H297.052L302.652 80H300.252L295.252 62.2H291.052L286.052 80H283.652ZM308.038 77.44C306.171 75.44 305.238 72.96 305.238 70C305.238 67.04 306.171 64.5733 308.038 62.6C309.904 60.6 312.171 59.6 314.838 59.6C316.731 59.6 318.331 60.0667 319.638 61C320.944 61.9067 321.864 62.9067 322.398 64H322.438V60H324.838V80H322.438V76H322.398C321.864 77.0933 320.944 78.1067 319.638 79.04C318.331 79.9467 316.731 80.4 314.838 80.4C312.171 80.4 309.904 79.4133 308.038 77.44ZM309.798 64.16C308.358 65.7067 307.638 67.6533 307.638 70C307.638 72.3467 308.358 74.3067 309.798 75.88C311.264 77.4267 313.011 78.2 315.038 78.2C317.011 78.2 318.731 77.4267 320.198 75.88C321.691 74.3067 322.438 72.3467 322.438 70C322.438 67.6533 321.691 65.7067 320.198 64.16C318.731 62.5867 317.011 61.8 315.038 61.8C313.011 61.8 311.264 62.5867 309.798 64.16ZM328.247 62.2V60H345.047V62.2H337.847V80H335.447V62.2H328.247ZM348.434 80V60H350.834V68.8H362.834V60H365.234V80H362.834V71H350.834V80H348.434ZM369.438 60H372.038L376.638 77.8H380.438L385.638 60H388.238L380.038 87.6H377.438L379.838 80H374.838L369.438 60ZM391.833 80V60H394.233V69H397.833C398.153 66.2533 399.219 64 401.033 62.24C402.846 60.48 405.046 59.6 407.633 59.6C410.353 59.6 412.659 60.6 414.553 62.6C416.473 64.5733 417.433 67.04 417.433 70C417.433 72.96 416.473 75.44 414.553 77.44C412.659 79.4133 410.353 80.4 407.633 80.4C405.046 80.4 402.846 79.5333 401.033 77.8C399.219 76.0667 398.153 73.8667 397.833 71.2H394.233V80H391.833ZM402.393 64.16C400.953 65.7067 400.233 67.6533 400.233 70C400.233 72.3467 400.953 74.3067 402.393 75.88C403.859 77.4267 405.606 78.2 407.633 78.2C409.659 78.2 411.393 77.4267 412.833 75.88C414.299 74.3067 415.033 72.3467 415.033 70C415.033 67.6533 414.299 65.7067 412.833 64.16C411.393 62.5867 409.659 61.8 407.633 61.8C405.606 61.8 403.859 62.5867 402.393 64.16ZM435.07 77.44C433.176 75.44 432.23 72.96 432.23 70C432.23 67.04 433.176 64.5733 435.07 62.6C436.99 60.6 439.31 59.6 442.03 59.6C445.203 59.6 447.723 60.7733 449.59 63.12C450.416 64.1333 451.03 65.2933 451.43 66.6H449.03C448.656 65.6667 448.163 64.8667 447.55 64.2C446.163 62.6 444.323 61.8 442.03 61.8C440.003 61.8 438.256 62.5867 436.79 64.16C435.35 65.7067 434.63 67.6533 434.63 70C434.63 72.3467 435.35 74.3067 436.79 75.88C438.256 77.4267 440.003 78.2 442.03 78.2C444.35 78.2 446.243 77.3333 447.71 75.6C448.403 74.8 448.91 73.9333 449.23 73H451.63C451.23 74.36 450.603 75.6 449.75 76.72C447.723 79.1733 445.15 80.4 442.03 80.4C439.31 80.4 436.99 79.4133 435.07 77.44ZM453.442 62.2V60H470.242V62.2H463.042V80H460.642V62.2H453.442ZM475.03 77.44C473.163 75.44 472.23 72.96 472.23 70C472.23 67.04 473.163 64.5733 475.03 62.6C476.896 60.6 479.163 59.6 481.83 59.6C483.723 59.6 485.323 60.0667 486.63 61C487.936 61.9067 488.856 62.9067 489.39 64H489.43V60H491.83V80H489.43V76H489.39C488.856 77.0933 487.936 78.1067 486.63 79.04C485.323 79.9467 483.723 80.4 481.83 80.4C479.163 80.4 476.896 79.4133 475.03 77.44ZM476.79 64.16C475.35 65.7067 474.63 67.6533 474.63 70C474.63 72.3467 475.35 74.3067 476.79 75.88C478.256 77.4267 480.003 78.2 482.03 78.2C484.003 78.2 485.723 77.4267 487.19 75.88C488.683 74.3067 489.43 72.3467 489.43 70C489.43 67.6533 488.683 65.7067 487.19 64.16C485.723 62.5867 484.003 61.8 482.03 61.8C480.003 61.8 478.256 62.5867 476.79 64.16ZM498.239 80V60H507.639C509.532 60 510.999 60.48 512.039 61.44C513.106 62.4 513.639 63.6533 513.639 65.2C513.639 67.2267 512.639 68.6133 510.639 69.36V69.4C510.719 69.4 510.879 69.44 511.119 69.52C511.359 69.6 511.666 69.76 512.039 70C512.439 70.24 512.812 70.5333 513.159 70.88C513.506 71.2267 513.799 71.7067 514.039 72.32C514.306 72.9333 514.439 73.6267 514.439 74.4C514.439 76.0533 513.839 77.4 512.639 78.44C511.466 79.48 509.812 80 507.679 80H498.239ZM500.639 68.4H507.639C508.812 68.4 509.706 68.1333 510.319 67.6C510.932 67.0667 511.239 66.3333 511.239 65.4C511.239 63.2667 510.039 62.2 507.639 62.2H500.639V68.4ZM500.639 77.8H507.639C510.572 77.8 512.039 76.6 512.039 74.2C512.039 71.8 510.572 70.6 507.639 70.6H500.639V77.8ZM519.45 80V60H521.85V68.4H526.65L533.25 60H536.05L528.65 69.6L536.65 80H533.85L526.65 70.6H521.85V80H519.45ZM537.836 60H540.436L545.036 77.8H548.836L554.036 60H556.636L548.436 87.6H545.836L548.236 80H543.236L537.836 60ZM568.442 84.2V75.2H570.642L574.842 59.6H585.642L589.842 75.2H592.042V84.2H586.842V80H573.642V84.2H568.442ZM576.242 75.2H584.242L581.242 64.4H579.242L576.242 75.2ZM596.427 77.48C594.293 75.3733 593.227 72.8133 593.227 69.8C593.227 66.7867 594.293 64.24 596.427 62.16C598.56 60.0533 601.227 59 604.427 59C607.6 59 610.253 60.0533 612.387 62.16C614.547 64.24 615.627 66.7867 615.627 69.8C615.627 72.8133 614.547 75.3733 612.387 77.48C610.253 79.56 607.6 80.6 604.427 80.6C601.227 80.6 598.56 79.56 596.427 77.48ZM600.587 65.48C599.547 66.6 599.027 68.04 599.027 69.8C599.027 71.56 599.547 73 600.587 74.12C601.627 75.24 602.907 75.8 604.427 75.8C605.947 75.8 607.227 75.24 608.267 74.12C609.307 73 609.827 71.56 609.827 69.8C609.827 68.04 609.307 66.6 608.267 65.48C607.227 64.36 605.947 63.8 604.427 63.8C602.907 63.8 601.627 64.36 600.587 65.48ZM629.052 62.6V56L634.452 52H639.852V80H633.852V59L629.052 62.6ZM648.176 76.68C645.563 73.9067 644.256 70.3467 644.256 66C644.256 61.6533 645.563 58.1067 648.176 55.36C650.79 52.5867 654.016 51.2 657.856 51.2C661.696 51.2 664.923 52.5867 667.536 55.36C670.15 58.1067 671.456 61.6533 671.456 66C671.456 70.3467 670.15 73.9067 667.536 76.68C664.923 79.4267 661.696 80.8 657.856 80.8C654.016 80.8 650.79 79.4267 648.176 76.68ZM652.616 59.16C651.31 60.7067 650.656 62.9867 650.656 66C650.656 69.0133 651.31 71.3067 652.616 72.88C653.95 74.4267 655.696 75.2 657.856 75.2C660.016 75.2 661.75 74.4267 663.056 72.88C664.39 71.3067 665.056 69.0133 665.056 66C665.056 62.9867 664.39 60.7067 663.056 59.16C661.75 57.5867 660.016 56.8 657.856 56.8C655.696 56.8 653.95 57.5867 652.616 59.16ZM689.778 76.68C687.164 73.9067 685.858 70.3467 685.858 66C685.858 61.6533 687.164 58.1067 689.778 55.36C692.391 52.5867 695.618 51.2 699.458 51.2C703.298 51.2 706.524 52.5867 709.138 55.36C711.751 58.1067 713.058 61.6533 713.058 66C713.058 70.3467 711.751 73.9067 709.138 76.68C706.524 79.4267 703.298 80.8 699.458 80.8C695.618 80.8 692.391 79.4267 689.778 76.68ZM694.218 59.16C692.911 60.7067 692.258 62.9867 692.258 66C692.258 69.0133 692.911 71.3067 694.218 72.88C695.551 74.4267 697.298 75.2 699.458 75.2C701.618 75.2 703.351 74.4267 704.658 72.88C705.991 71.3067 706.658 69.0133 706.658 66C706.658 62.9867 705.991 60.7067 704.658 59.16C703.351 57.5867 701.618 56.8 699.458 56.8C697.298 56.8 695.551 57.5867 694.218 59.16ZM720.168 76.68C717.555 73.9067 716.248 70.3467 716.248 66C716.248 61.6533 717.555 58.1067 720.168 55.36C722.782 52.5867 726.008 51.2 729.848 51.2C733.688 51.2 736.915 52.5867 739.528 55.36C742.142 58.1067 743.448 61.6533 743.448 66C743.448 70.3467 742.142 73.9067 739.528 76.68C736.915 79.4267 733.688 80.8 729.848 80.8C726.008 80.8 722.782 79.4267 720.168 76.68ZM724.608 59.16C723.302 60.7067 722.648 62.9867 722.648 66C722.648 69.0133 723.302 71.3067 724.608 72.88C725.942 74.4267 727.688 75.2 729.848 75.2C732.008 75.2 733.742 74.4267 735.048 72.88C736.382 71.3067 737.048 69.0133 737.048 66C737.048 62.9867 736.382 60.7067 735.048 59.16C733.742 57.5867 732.008 56.8 729.848 56.8C727.688 56.8 725.942 57.5867 724.608 59.16ZM750.559 76.68C747.946 73.9067 746.639 70.3467 746.639 66C746.639 61.6533 747.946 58.1067 750.559 55.36C753.172 52.5867 756.399 51.2 760.239 51.2C764.079 51.2 767.306 52.5867 769.919 55.36C772.532 58.1067 773.839 61.6533 773.839 66C773.839 70.3467 772.532 73.9067 769.919 76.68C767.306 79.4267 764.079 80.8 760.239 80.8C756.399 80.8 753.172 79.4267 750.559 76.68ZM754.999 59.16C753.692 60.7067 753.039 62.9867 753.039 66C753.039 69.0133 753.692 71.3067 754.999 72.88C756.332 74.4267 758.079 75.2 760.239 75.2C762.399 75.2 764.132 74.4267 765.439 72.88C766.772 71.3067 767.439 69.0133 767.439 66C767.439 62.9867 766.772 60.7067 765.439 59.16C764.132 57.5867 762.399 56.8 760.239 56.8C758.079 56.8 756.332 57.5867 754.999 59.16ZM776.43 76.8V72H779.43V69.6H776.43V64.4H779.43V52H791.43C794.656 52 797.19 52.8267 799.03 54.48C800.896 56.1333 801.83 58.24 801.83 60.8C801.83 63.36 800.896 65.4667 799.03 67.12C797.19 68.7733 794.656 69.6 791.43 69.6H785.43V72H794.63V76.8H785.43V80H779.43V76.8H776.43ZM785.43 64.4H791.03C792.576 64.4 793.763 64.0667 794.59 63.4C795.416 62.7333 795.83 61.8667 795.83 60.8C795.83 59.7333 795.416 58.8667 794.59 58.2C793.763 57.5333 792.576 57.2 791.03 57.2H785.43V64.4ZM816.458 70.6V65.8H822.458V59.6H827.258V65.8H833.258V70.6H827.258V76.8H822.458V70.6H816.458ZM847.08 52H853.28L858.88 74.4H862.28L867.88 52H874.08L866.88 80H854.28L847.08 52ZM877.092 80V52H883.092V80H877.092ZM888.303 80V52H901.303C904.636 52 907.33 52.9467 909.383 54.84C911.463 56.7067 912.503 59.0267 912.503 61.8C912.503 64.5733 911.463 66.9067 909.383 68.8C907.33 70.6667 904.636 71.6 901.303 71.6H894.303V80H888.303ZM894.303 66H901.103C902.756 66 904.036 65.6133 904.943 64.84C905.85 64.0667 906.303 63.0533 906.303 61.8C906.303 60.5467 905.85 59.5333 904.943 58.76C904.036 57.9867 902.756 57.6 901.103 57.6H894.303V66Z" fill="white"/>
</g>
<defs>
<filter id="filter0_d_3_280" x="0.889069" y="0" width="915.614" height="95.6" filterUnits="userSpaceOnUse" color-interpolation-filters="sRGB">
<feFlood flood-opacity="0" result="BackgroundImageFix"/>
<feColorMatrix in="SourceAlpha" type="matrix" values="0 0 0 0 0 0 0 0 0 0 0 0 0 0 0 0 0 0 127 0" result="hardAlpha"/>
<feOffset dy="4"/>
<feGaussianBlur stdDeviation="2"/>
<feComposite in2="hardAlpha" operator="out"/>
<feColorMatrix type="matrix" values="0 0 0 0 0 0 0 0 0 0 0 0 0 0 0 0 0 0 0.25 0"/>
<feBlend mode="normal" in2="BackgroundImageFix" result="effect1_dropShadow_3_280"/>
<feBlend mode="normal" in="SourceGraphic" in2="effect1_dropShadow_3_280" result="shape"/>
</filter>
</defs>
</svg>
