<svg width="716" height="129" viewBox="0 0 716 129" fill="none" xmlns="http://www.w3.org/2000/svg">
<rect x="0.399994" y="0.0999756" width="715.2" height="128.8" rx="9.6" fill="#F4E60B"/>
<path d="M204.771 66.68H210.051C210.344 67.5893 210.843 68.44 211.547 69.232C213.102 70.904 215.243 71.74 217.971 71.74C222.518 71.74 224.791 70.1266 224.791 66.9C224.791 65.6093 224.219 64.5533 223.075 63.732C221.96 62.9106 220.259 62.5 217.971 62.5H214.011V57.66H217.971C219.907 57.66 221.374 57.2493 222.371 56.428C223.398 55.6066 223.911 54.5506 223.911 53.2599C223.911 51.9693 223.398 50.9133 222.371 50.092C221.374 49.2706 219.907 48.86 217.971 48.86C215.507 48.86 213.6 49.5933 212.251 51.06C211.635 51.764 211.21 52.4973 210.975 53.2599H205.651C206.091 51.5879 206.824 50.048 207.851 48.64C210.315 45.56 213.688 44.0199 217.971 44.0199C221.374 44.0199 224.087 44.8999 226.111 46.66C228.164 48.3906 229.191 50.5173 229.191 53.0399C229.191 55.064 228.414 56.7653 226.859 58.144C226.272 58.7013 225.51 59.2 224.571 59.64V59.86C225.568 60.212 226.478 60.7253 227.299 61.4C229.147 63.0133 230.071 64.9933 230.071 67.34C230.071 70.0386 228.986 72.2533 226.815 73.984C224.674 75.7146 221.726 76.58 217.971 76.58C213.219 76.58 209.582 74.9373 207.059 71.652C205.915 70.1266 205.152 68.4693 204.771 66.68ZM236.348 72.928C234.353 70.7573 233.356 67.9413 233.356 64.48C233.356 61.0186 234.353 58.2173 236.348 56.076C238.372 53.9053 240.894 52.8199 243.916 52.8199C245.822 52.8199 247.568 53.3773 249.152 54.492C249.826 54.9613 250.428 55.504 250.956 56.12H251.176V53.2599H255.796V75.7H251.176V72.62H250.956C250.516 73.236 249.914 73.8226 249.152 74.38C247.568 75.5533 245.822 76.14 243.916 76.14C240.894 76.14 238.372 75.0693 236.348 72.928ZM239.956 58.936C238.782 60.2266 238.196 62.0746 238.196 64.48C238.196 66.8853 238.782 68.7333 239.956 70.024C241.129 71.3146 242.742 71.96 244.796 71.96C246.732 71.96 248.272 71.3146 249.416 70.024C250.589 68.704 251.176 66.856 251.176 64.48C251.176 62.104 250.589 60.2706 249.416 58.98C248.272 57.66 246.732 57 244.796 57C242.742 57 241.129 57.6453 239.956 58.936ZM259.958 63.16C259.958 56.8239 261.205 52.2039 263.698 49.3C266.221 46.3666 269.961 44.8999 274.918 44.8999H280.198V49.08H275.358C271.956 49.08 269.36 49.872 267.57 51.456C265.781 53.04 264.784 55.2546 264.578 58.1H264.798C265.121 57.6306 265.664 57.1173 266.426 56.5599C268.069 55.5333 269.873 55.0199 271.838 55.0199C274.742 55.0199 277.148 56.0173 279.054 58.012C280.99 60.0066 281.958 62.5293 281.958 65.58C281.958 68.6893 280.932 71.2266 278.878 73.192C276.854 75.1573 274.214 76.14 270.958 76.14C267.673 76.14 265.018 74.996 262.994 72.708C260.97 70.42 259.958 67.2373 259.958 63.16ZM266.558 61.004C265.385 62.2066 264.798 63.732 264.798 65.58C264.798 67.428 265.385 68.9533 266.558 70.156C267.732 71.3586 269.198 71.96 270.958 71.96C272.718 71.96 274.185 71.3586 275.358 70.156C276.532 68.9533 277.118 67.428 277.118 65.58C277.118 63.732 276.532 62.2066 275.358 61.004C274.185 59.8013 272.718 59.1999 270.958 59.1999C269.198 59.1999 267.732 59.8013 266.558 61.004ZM285.679 84.06V53.2599H290.299V56.12H290.519C291.047 55.504 291.649 54.9613 292.323 54.492C293.907 53.3773 295.653 52.8199 297.559 52.8199C300.581 52.8199 303.089 53.9053 305.083 56.076C307.107 58.2173 308.119 61.0186 308.119 64.48C308.119 67.9413 307.107 70.7573 305.083 72.928C303.089 75.0693 300.581 76.14 297.559 76.14C295.623 76.14 293.878 75.5973 292.323 74.512C291.619 74.0133 291.018 73.456 290.519 72.84H290.299V84.06H285.679ZM292.015 58.98C290.871 60.2706 290.299 62.104 290.299 64.48C290.299 66.856 290.871 68.704 292.015 70.024C293.189 71.3146 294.743 71.96 296.679 71.96C298.733 71.96 300.346 71.3146 301.519 70.024C302.693 68.7333 303.279 66.8853 303.279 64.48C303.279 62.0746 302.693 60.2266 301.519 58.936C300.346 57.6453 298.733 57 296.679 57C294.743 57 293.189 57.66 292.015 58.98ZM313.734 72.928C311.74 70.7573 310.742 67.9413 310.742 64.48C310.742 61.0186 311.74 58.2173 313.734 56.076C315.758 53.9053 318.281 52.8199 321.302 52.8199C323.209 52.8199 324.954 53.3773 326.538 54.492C327.213 54.9613 327.814 55.504 328.342 56.12H328.562V53.2599H333.182V75.7H328.562V72.62H328.342C327.902 73.236 327.301 73.8226 326.538 74.38C324.954 75.5533 323.209 76.14 321.302 76.14C318.281 76.14 315.758 75.0693 313.734 72.928ZM317.342 58.936C316.169 60.2266 315.582 62.0746 315.582 64.48C315.582 66.8853 316.169 68.7333 317.342 70.024C318.516 71.3146 320.129 71.96 322.182 71.96C324.118 71.96 325.658 71.3146 326.802 70.024C327.976 68.704 328.562 66.856 328.562 64.48C328.562 62.104 327.976 60.2706 326.802 58.98C325.658 57.66 324.118 57 322.182 57C320.129 57 318.516 57.6453 317.342 58.936ZM336.025 57.44V53.2599H355.605V57.44H348.125V75.7H343.505V57.44H336.025ZM358.469 75.7V53.2599H363.089V60.74H368.589C371.17 60.74 373.238 61.444 374.793 62.852C376.377 64.26 377.169 66.0493 377.169 68.22C377.169 70.3906 376.377 72.18 374.793 73.588C373.238 74.996 371.17 75.7 368.589 75.7H358.469ZM363.089 71.52H368.589C369.791 71.52 370.715 71.2266 371.361 70.64C372.006 70.0533 372.329 69.2466 372.329 68.22C372.329 67.1933 372.006 66.3866 371.361 65.8C370.715 65.2133 369.791 64.92 368.589 64.92H363.089V71.52ZM391.915 63.16C391.915 56.8239 393.162 52.2039 395.655 49.3C398.178 46.3666 401.918 44.8999 406.875 44.8999H412.155V49.08H407.315C403.913 49.08 401.317 49.872 399.527 51.456C397.738 53.04 396.741 55.2546 396.535 58.1H396.755C397.078 57.6306 397.621 57.1173 398.383 56.5599C400.026 55.5333 401.83 55.0199 403.795 55.0199C406.699 55.0199 409.105 56.0173 411.011 58.012C412.947 60.0066 413.915 62.5293 413.915 65.58C413.915 68.6893 412.889 71.2266 410.835 73.192C408.811 75.1573 406.171 76.14 402.915 76.14C399.63 76.14 396.975 74.996 394.951 72.708C392.927 70.42 391.915 67.2373 391.915 63.16ZM398.515 61.004C397.342 62.2066 396.755 63.732 396.755 65.58C396.755 67.428 397.342 68.9533 398.515 70.156C399.689 71.3586 401.155 71.96 402.915 71.96C404.675 71.96 406.142 71.3586 407.315 70.156C408.489 68.9533 409.075 67.428 409.075 65.58C409.075 63.732 408.489 62.2066 407.315 61.004C406.142 59.8013 404.675 59.1999 402.915 59.1999C401.155 59.1999 399.689 59.8013 398.515 61.004ZM419.66 72.796C417.431 70.5373 416.316 67.7653 416.316 64.48C416.316 61.1946 417.431 58.4373 419.66 56.208C421.919 53.9493 424.691 52.8199 427.976 52.8199C431.262 52.8199 434.019 53.9493 436.248 56.208C438.507 58.4373 439.636 61.1946 439.636 64.48C439.636 67.7653 438.507 70.5373 436.248 72.796C434.019 75.0253 431.262 76.14 427.976 76.14C424.691 76.14 421.919 75.0253 419.66 72.796ZM423.048 59.068C421.787 60.4173 421.156 62.2213 421.156 64.48C421.156 66.7386 421.787 68.5573 423.048 69.936C424.31 71.2853 425.952 71.96 427.976 71.96C430 71.96 431.643 71.2853 432.904 69.936C434.166 68.5573 434.796 66.7386 434.796 64.48C434.796 62.2213 434.166 60.4173 432.904 59.068C431.643 57.6893 430 57 427.976 57C425.952 57 424.31 57.6893 423.048 59.068ZM443.59 75.7V53.2599H448.21V62.28H459.21V53.2599H463.83V75.7H459.21V66.46H448.21V75.7H443.59ZM466.913 53.2599H471.753L476.593 71.3H479.013L484.293 53.2599H489.133L479.893 84.06H475.053L477.693 75.7H473.073L466.913 53.2599ZM493.435 72.84C491.293 70.64 490.223 67.8533 490.223 64.48C490.223 61.1066 491.293 58.32 493.435 56.12C495.576 53.9199 498.245 52.8199 501.443 52.8199C505.021 52.8199 507.94 54.1839 510.199 56.912C511.167 58.1733 511.841 59.5226 512.223 60.96H507.383C507.177 60.2266 506.796 59.5666 506.239 58.98C505.095 57.66 503.496 57 501.443 57C499.624 57 498.099 57.6893 496.867 59.068C495.664 60.4466 495.063 62.2506 495.063 64.48C495.063 66.7093 495.664 68.5133 496.867 69.892C498.099 71.2706 499.624 71.96 501.443 71.96C503.555 71.96 505.212 71.3 506.415 69.98C506.943 69.3933 507.339 68.7333 507.603 68H512.223C511.841 69.496 511.167 70.86 510.199 72.092C507.969 74.7906 505.051 76.14 501.443 76.14C498.245 76.14 495.576 75.04 493.435 72.84Z" fill="black"/>
</svg>
