<svg width="654" height="74" viewBox="0 0 654 74" fill="none" xmlns="http://www.w3.org/2000/svg">
<path d="M1.37752 23.7992V0.659018H6.33613V9.7498H9.64187L15.9228 0.659018H21.5425L13.9393 11.7332L22.0384 23.7992H16.2533L9.80716 14.3778H6.33613V23.7992H1.37752ZM23.6771 30.0801V6.93992H28.3051V9.08865H28.4704C28.823 8.62585 29.2527 8.18509 29.7596 7.76636C30.9497 6.88483 32.283 6.44406 33.7596 6.44406C35.9634 6.44406 37.8036 7.2705 39.2801 8.92337C40.7787 10.5542 41.528 12.7029 41.528 15.3696C41.528 18.0362 40.7787 20.1959 39.2801 21.8488C37.8036 23.4796 35.9634 24.2951 33.7596 24.2951C32.283 24.2951 30.9497 23.8543 29.7596 22.9728C29.2527 22.554 28.823 22.1133 28.4704 21.6505H28.3051V30.0801H23.6771ZM29.4952 11.7332C28.7018 12.5927 28.3051 13.8048 28.3051 15.3696C28.3051 16.9343 28.7018 18.1574 29.4952 19.0389C30.2885 19.8984 31.3243 20.3282 32.6026 20.3282C33.8147 20.3282 34.8064 19.8874 35.5777 19.0059C36.3491 18.1243 36.7347 16.9122 36.7347 15.3696C36.7347 13.8269 36.3491 12.6148 35.5777 11.7332C34.8064 10.8517 33.8147 10.4109 32.6026 10.4109C31.3243 10.4109 30.2885 10.8517 29.4952 11.7332ZM42.3661 6.93992H47.1594L50.4652 19.8323H51.7875L55.4238 6.93992H60.2171L53.4403 30.0801H48.647L50.4652 23.7992H46.8289L42.3661 6.93992ZM60.3759 10.9068V6.93992H76.2435V10.9068H70.6237V23.7992H65.9957V10.9068H60.3759ZM78.2347 23.7992V6.93992H82.8627V14.2125L82.6974 17.1877H83.028L89.8048 6.93992H94.7634V23.7992H90.1353V16.5266L90.3006 13.5514H89.97L83.1933 23.7992H78.2347ZM96.7584 10.9068V6.93992H112.626V10.9068H107.006V23.7992H102.378V10.9068H96.7584ZM116.237 21.7166C114.496 19.9756 113.625 17.8599 113.625 15.3696C113.625 12.8792 114.496 10.7746 116.237 9.0556C118 7.31457 120.16 6.44406 122.716 6.44406C125.317 6.44406 127.454 7.30355 129.129 9.02254C130.804 10.7415 131.642 12.8572 131.642 15.3696V16.3613H118.419C118.595 17.4632 119.091 18.3998 119.906 19.1712C120.722 19.9425 121.658 20.3282 122.716 20.3282C123.884 20.3282 124.887 19.9976 125.724 19.3364C126.055 19.0499 126.319 18.7194 126.518 18.3447H131.476C131.102 19.4687 130.551 20.4604 129.824 21.3199C128.061 23.3033 125.691 24.2951 122.716 24.2951C120.16 24.2951 118 23.4356 116.237 21.7166ZM118.584 13.5514H126.683C126.507 12.6699 126.055 11.9316 125.328 11.3366C124.623 10.7195 123.752 10.4109 122.716 10.4109C121.68 10.4109 120.799 10.7085 120.072 11.3035C119.344 11.8985 118.849 12.6478 118.584 13.5514ZM143.704 23.7992V6.93992H148.332V13.2208H150.315L154.778 6.93992H159.902L154.447 14.7084L160.398 23.7992H155.109L150.811 17.1877H148.332V23.7992H143.704ZM163.048 21.7166C161.284 19.9756 160.403 17.8599 160.403 15.3696C160.403 12.8792 161.284 10.7746 163.048 9.0556C164.811 7.31457 167.014 6.44406 169.659 6.44406C172.282 6.44406 174.474 7.31457 176.237 9.0556C178.023 10.7746 178.915 12.8792 178.915 15.3696C178.915 17.8599 178.023 19.9756 176.237 21.7166C174.474 23.4356 172.282 24.2951 169.659 24.2951C167.014 24.2951 164.811 23.4356 163.048 21.7166ZM166.486 11.7994C165.626 12.725 165.196 13.915 165.196 15.3696C165.196 16.8241 165.626 18.0142 166.486 18.9398C167.345 19.8654 168.403 20.3282 169.659 20.3282C170.915 20.3282 171.973 19.8654 172.833 18.9398C173.692 18.0142 174.122 16.8241 174.122 15.3696C174.122 13.915 173.692 12.725 172.833 11.7994C171.973 10.8738 170.915 10.4109 169.659 10.4109C168.403 10.4109 167.345 10.8738 166.486 11.7994ZM179.753 23.7992L184.216 6.93992H193.141L197.604 23.7992H192.976L189.505 10.9068H187.852L184.381 23.7992H179.753ZM201.043 21.7166C199.302 19.9756 198.432 17.8599 198.432 15.3696C198.432 12.8792 199.302 10.7746 201.043 9.0556C202.806 7.31457 204.966 6.44406 207.523 6.44406C210.123 6.44406 212.261 7.30355 213.936 9.02254C215.611 10.7415 216.448 12.8572 216.448 15.3696V16.3613H203.225C203.401 17.4632 203.897 18.3998 204.713 19.1712C205.528 19.9425 206.465 20.3282 207.523 20.3282C208.691 20.3282 209.693 19.9976 210.531 19.3364C210.861 19.0499 211.126 18.7194 211.324 18.3447H216.283C215.908 19.4687 215.357 20.4604 214.63 21.3199C212.867 23.3033 210.498 24.2951 207.523 24.2951C204.966 24.2951 202.806 23.4356 201.043 21.7166ZM203.39 13.5514H211.49C211.313 12.6699 210.861 11.9316 210.134 11.3366C209.429 10.7195 208.558 10.4109 207.523 10.4109C206.487 10.4109 205.605 10.7085 204.878 11.3035C204.151 11.8985 203.655 12.6478 203.39 13.5514ZM220.865 21.7166C219.124 19.9756 218.253 17.8599 218.253 15.3696C218.253 12.8792 219.124 10.7746 220.865 9.0556C222.628 7.31457 224.788 6.44406 227.344 6.44406C230.407 6.44406 232.744 7.54598 234.352 9.7498C235.08 10.6974 235.609 11.7994 235.939 13.0555H231.146C230.947 12.5707 230.683 12.1299 230.352 11.7332C229.515 10.8517 228.512 10.4109 227.344 10.4109C226.176 10.4109 225.162 10.8738 224.303 11.7994C223.465 12.725 223.047 13.915 223.047 15.3696C223.047 16.8241 223.465 18.0142 224.303 18.9398C225.162 19.8654 226.176 20.3282 227.344 20.3282C228.512 20.3282 229.515 19.8874 230.352 19.0059C230.683 18.6092 230.947 18.1684 231.146 17.6836H235.939C235.631 18.9618 235.124 20.0637 234.418 20.9893C232.81 23.1931 230.452 24.2951 227.344 24.2951C224.788 24.2951 222.628 23.4356 220.865 21.7166ZM240.235 21.7166C238.472 19.9756 237.591 17.8599 237.591 15.3696C237.591 12.8792 238.472 10.7746 240.235 9.0556C241.998 7.31457 244.202 6.44406 246.847 6.44406C249.469 6.44406 251.662 7.31457 253.425 9.0556C255.21 10.7746 256.103 12.8792 256.103 15.3696C256.103 17.8599 255.21 19.9756 253.425 21.7166C251.662 23.4356 249.469 24.2951 246.847 24.2951C244.202 24.2951 241.998 23.4356 240.235 21.7166ZM243.673 11.7994C242.814 12.725 242.384 13.915 242.384 15.3696C242.384 16.8241 242.814 18.0142 243.673 18.9398C244.533 19.8654 245.591 20.3282 246.847 20.3282C248.103 20.3282 249.161 19.8654 250.02 18.9398C250.88 18.0142 251.309 16.8241 251.309 15.3696C251.309 13.915 250.88 12.725 250.02 11.7994C249.161 10.8738 248.103 10.4109 246.847 10.4109C245.591 10.4109 244.533 10.8738 243.673 11.7994ZM266.537 6.93992H271.33L274.636 19.8323H275.958L279.594 6.93992H284.388L277.611 30.0801H272.817L274.636 23.7992H270.999L266.537 6.93992ZM283.901 27.2702V19.8323H285.719L289.19 6.93992H298.115L301.586 19.8323H303.405V27.2702H299.107V23.7992H288.198V27.2702H283.901ZM290.347 19.8323H296.958L294.479 10.9068H292.826L290.347 19.8323ZM306.764 21.8488C305.287 20.1959 304.549 18.0362 304.549 15.3696C304.549 12.7029 305.287 10.5542 306.764 8.92337C308.262 7.2705 310.113 6.44406 312.317 6.44406C313.794 6.44406 315.127 6.88483 316.317 7.76636C316.824 8.18509 317.254 8.62585 317.606 9.08865H317.772V6.93992H322.4V23.7992H317.772V21.6505H317.606C317.254 22.1133 316.824 22.554 316.317 22.9728C315.127 23.8543 313.794 24.2951 312.317 24.2951C310.113 24.2951 308.262 23.4796 306.764 21.8488ZM310.499 11.7332C309.728 12.6148 309.342 13.8269 309.342 15.3696C309.342 16.9122 309.728 18.1243 310.499 19.0059C311.27 19.8874 312.262 20.3282 313.474 20.3282C314.752 20.3282 315.788 19.8984 316.582 19.0389C317.375 18.1574 317.772 16.9343 317.772 15.3696C317.772 13.8048 317.375 12.5927 316.582 11.7332C315.788 10.8517 314.752 10.4109 313.474 10.4109C312.262 10.4109 311.27 10.8517 310.499 11.7332ZM325.54 13.2208V6.93992H330.168V12.8903C330.168 14.6533 331.105 15.5348 332.978 15.5348C333.882 15.5348 334.752 15.3806 335.59 15.072C335.92 14.9398 336.207 14.7855 336.449 14.6092V6.93992H341.077V23.7992H336.449V18.3447C336.141 18.5871 335.777 18.7855 335.358 18.9398C334.41 19.3144 333.342 19.5017 332.152 19.5017C330.102 19.5017 328.482 18.9398 327.292 17.8158C326.124 16.6919 325.54 15.1602 325.54 13.2208ZM344.728 23.7992V6.93992H349.356V14.2125L349.19 17.1877H349.521L356.298 6.93992H361.256V23.7992H356.628V16.5266L356.794 13.5514H356.463L349.686 23.7992H344.728ZM374.996 23.7992V7.2705H376.979V20.6587L376.946 20.9893H376.979L386.566 7.2705H388.88V23.7992H386.896V10.4109L386.93 10.0804H386.896L377.31 23.7992H374.996ZM401.619 7.2705H403.767L407.569 21.981H410.709L415.007 7.2705H417.156L410.379 30.0801H408.23L410.214 23.7992H406.081L401.619 7.2705ZM418.309 19.0059H420.292C420.446 19.6009 420.744 20.1519 421.185 20.6587C422.198 21.7607 423.609 22.3116 425.416 22.3116C426.915 22.3116 428.061 22.0141 428.854 21.4191C429.647 20.824 430.044 20.0747 430.044 19.1712C430.044 18.2676 429.658 17.5513 428.887 17.0224C428.138 16.4715 426.981 16.196 425.416 16.196H423.433V14.3778H425.416C428.171 14.3778 429.548 13.4412 429.548 11.568C429.548 10.7746 429.196 10.1134 428.49 9.58452C427.785 9.03356 426.76 8.75808 425.416 8.75808C423.807 8.75808 422.551 9.2319 421.648 10.1795C421.229 10.5983 420.942 11.0611 420.788 11.568H418.805C419.025 10.7305 419.422 9.95917 419.995 9.25394C421.273 7.71126 423.08 6.93992 425.416 6.93992C427.311 6.93992 428.799 7.38069 429.879 8.26222C430.981 9.14375 431.532 10.1906 431.532 11.4027C431.532 13.1657 430.54 14.4219 428.556 15.1712V15.2043C428.601 15.2043 428.733 15.2483 428.953 15.3365C429.174 15.4026 429.46 15.5348 429.813 15.7332C430.165 15.9315 430.507 16.185 430.837 16.4935C431.168 16.78 431.444 17.1767 431.664 17.6836C431.906 18.1905 432.028 18.7414 432.028 19.3364C432.028 20.7249 431.455 21.8708 430.309 22.7744C429.185 23.678 427.554 24.1298 425.416 24.1298C422.727 24.1298 420.755 23.2813 419.499 21.5843C418.948 20.813 418.551 19.9535 418.309 19.0059ZM436.171 23.7992V7.2705H438.155V14.5431H448.072V7.2705H450.055V23.7992H448.072V16.3613H438.155V23.7992H436.171ZM456.504 21.6835C454.962 20.0307 454.19 17.9811 454.19 15.5348C454.19 13.0886 454.962 11.0501 456.504 9.41923C458.047 7.76636 459.92 6.93992 462.124 6.93992C463.689 6.93992 465.011 7.32559 466.091 8.09693C467.171 8.84623 467.931 9.67267 468.372 10.5762H468.405V7.2705H470.388V23.7992H468.405V20.4935H468.372C467.931 21.397 467.171 22.2345 466.091 23.0058C465.011 23.7551 463.689 24.1298 462.124 24.1298C459.92 24.1298 458.047 23.3144 456.504 21.6835ZM457.959 10.7085C456.769 11.9867 456.174 13.5955 456.174 15.5348C456.174 17.4742 456.769 19.094 457.959 20.3943C459.171 21.6725 460.614 22.3116 462.289 22.3116C463.92 22.3116 465.342 21.6725 466.554 20.3943C467.788 19.094 468.405 17.4742 468.405 15.5348C468.405 13.5955 467.788 11.9867 466.554 10.7085C465.342 9.40821 463.92 8.75808 462.289 8.75808C460.614 8.75808 459.171 9.40821 457.959 10.7085ZM475.685 23.7992V7.2705H477.669V20.6587L477.636 20.9893H477.669L487.255 7.2705H489.569V23.7992H487.586V10.4109L487.619 10.0804H487.586L477.999 23.7992H475.685ZM477.999 0.989592H479.817C479.817 1.67278 480.06 2.23475 480.545 2.67552C481.03 3.09425 481.724 3.30361 482.627 3.30361C483.531 3.30361 484.225 3.09425 484.71 2.67552C485.195 2.23475 485.437 1.67278 485.437 0.989592H487.255C487.255 2.09151 486.826 3.02813 485.966 3.79947C485.107 4.57081 483.994 4.95648 482.627 4.95648C481.261 4.95648 480.148 4.57081 479.288 3.79947C478.429 3.02813 477.999 2.09151 477.999 0.989592ZM492.382 9.08865V7.2705H506.266V9.08865H500.316V23.7992H498.332V9.08865H492.382ZM510.289 21.6835C508.702 20.0527 507.908 18.0031 507.908 15.5348C507.908 13.0666 508.702 11.017 510.289 9.38617C511.875 7.75534 513.837 6.93992 516.173 6.93992C518.487 6.93992 520.437 7.75534 522.024 9.38617C523.633 10.995 524.437 12.9894 524.437 15.3696V16.196H509.892C509.98 17.937 510.619 19.3915 511.809 20.5596C512.999 21.7276 514.454 22.3116 516.173 22.3116C518.068 22.3116 519.622 21.7056 520.834 20.4935C521.407 19.9645 521.837 19.3585 522.123 18.6753H524.107C523.71 19.7111 523.148 20.6257 522.421 21.4191C520.79 23.2262 518.707 24.1298 516.173 24.1298C513.837 24.1298 511.875 23.3144 510.289 21.6835ZM509.892 14.3778H522.288C522.112 12.769 521.451 11.4357 520.305 10.3779C519.181 9.29802 517.804 8.75808 516.173 8.75808C514.542 8.75808 513.154 9.287 512.008 10.3448C510.862 11.4027 510.156 12.747 509.892 14.3778ZM537.829 30.0801V7.2705H539.813V10.5762H539.846C540.198 9.69471 540.937 8.86827 542.061 8.09693C543.185 7.32559 544.529 6.93992 546.094 6.93992C548.297 6.93992 550.171 7.76636 551.713 9.41923C553.256 11.0501 554.027 13.0886 554.027 15.5348C554.027 17.9811 553.256 20.0307 551.713 21.6835C550.171 23.3144 548.297 24.1298 546.094 24.1298C544.529 24.1298 543.185 23.7441 542.061 22.9728C540.937 22.2014 540.198 21.375 539.846 20.4935H539.813V30.0801H537.829ZM541.631 10.7085C540.419 11.9867 539.813 13.5955 539.813 15.5348C539.813 17.4742 540.419 19.094 541.631 20.3943C542.865 21.6725 544.297 22.3116 545.928 22.3116C547.603 22.3116 549.036 21.6725 550.226 20.3943C551.438 19.094 552.044 17.4742 552.044 15.5348C552.044 13.5955 551.438 11.9867 550.226 10.7085C549.036 9.40821 547.603 8.75808 545.928 8.75808C544.297 8.75808 542.865 9.40821 541.631 10.7085ZM559.324 21.6835C557.782 20.0307 557.01 17.9811 557.01 15.5348C557.01 13.0886 557.782 11.0501 559.324 9.41923C560.867 7.76636 562.74 6.93992 564.944 6.93992C566.509 6.93992 567.831 7.32559 568.911 8.09693C569.991 8.84623 570.751 9.67267 571.192 10.5762H571.225V7.2705H573.208V23.7992H571.225V20.4935H571.192C570.751 21.397 569.991 22.2345 568.911 23.0058C567.831 23.7551 566.509 24.1298 564.944 24.1298C562.74 24.1298 560.867 23.3144 559.324 21.6835ZM560.779 10.7085C559.589 11.9867 558.994 13.5955 558.994 15.5348C558.994 17.4742 559.589 19.094 560.779 20.3943C561.991 21.6725 563.434 22.3116 565.109 22.3116C566.74 22.3116 568.162 21.6725 569.374 20.3943C570.608 19.094 571.225 17.4742 571.225 15.5348C571.225 13.5955 570.608 11.9867 569.374 10.7085C568.162 9.40821 566.74 8.75808 565.109 8.75808C563.434 8.75808 561.991 9.40821 560.779 10.7085ZM576.687 19.0059H578.671C578.825 19.6009 579.122 20.1519 579.563 20.6587C580.577 21.7607 581.987 22.3116 583.795 22.3116C585.293 22.3116 586.439 22.0141 587.232 21.4191C588.026 20.824 588.423 20.0747 588.423 19.1712C588.423 18.2676 588.037 17.5513 587.266 17.0224C586.516 16.4715 585.359 16.196 583.795 16.196H581.811V14.3778H583.795C586.549 14.3778 587.927 13.4412 587.927 11.568C587.927 10.7746 587.574 10.1134 586.869 9.58452C586.164 9.03356 585.139 8.75808 583.795 8.75808C582.186 8.75808 580.93 9.2319 580.026 10.1795C579.607 10.5983 579.321 11.0611 579.166 11.568H577.183C577.403 10.7305 577.8 9.95917 578.373 9.25394C579.651 7.71126 581.458 6.93992 583.795 6.93992C585.69 6.93992 587.177 7.38069 588.257 8.26222C589.359 9.14375 589.91 10.1906 589.91 11.4027C589.91 13.1657 588.918 14.4219 586.935 15.1712V15.2043C586.979 15.2043 587.111 15.2483 587.332 15.3365C587.552 15.4026 587.839 15.5348 588.191 15.7332C588.544 15.9315 588.885 16.185 589.216 16.4935C589.547 16.78 589.822 17.1767 590.042 17.6836C590.285 18.1905 590.406 18.7414 590.406 19.3364C590.406 20.7249 589.833 21.8708 588.687 22.7744C587.563 23.678 585.932 24.1298 583.795 24.1298C581.106 24.1298 579.133 23.2813 577.877 21.5843C577.326 20.813 576.93 19.9535 576.687 19.0059ZM594.55 23.7992V7.2705H597.525L602.979 17.8489H603.971L609.426 7.2705H612.401V23.7992H610.417V9.91509L610.45 9.58452H610.417L605.128 19.8323H601.822L596.533 9.58452H596.5L596.533 9.91509V23.7992H594.55ZM618.92 21.6835C617.333 20.0527 616.539 18.0031 616.539 15.5348C616.539 13.0666 617.333 11.017 618.92 9.38617C620.506 7.75534 622.468 6.93992 624.804 6.93992C627.118 6.93992 629.068 7.75534 630.655 9.38617C632.264 10.995 633.068 12.9894 633.068 15.3696V16.196H618.523C618.611 17.937 619.25 19.3915 620.44 20.5596C621.63 21.7276 623.085 22.3116 624.804 22.3116C626.699 22.3116 628.253 21.7056 629.465 20.4935C630.038 19.9645 630.468 19.3585 630.754 18.6753H632.738C632.341 19.7111 631.779 20.6257 631.052 21.4191C629.421 23.2262 627.338 24.1298 624.804 24.1298C622.468 24.1298 620.506 23.3144 618.92 21.6835ZM618.523 14.3778H630.919C630.743 12.769 630.082 11.4357 628.936 10.3779C627.812 9.29802 626.435 8.75808 624.804 8.75808C623.173 8.75808 621.785 9.287 620.639 10.3448C619.493 11.4027 618.787 12.747 618.523 14.3778ZM637.195 30.0801V7.2705H639.179V10.5762H639.212C639.564 9.69471 640.303 8.86827 641.427 8.09693C642.55 7.32559 643.895 6.93992 645.46 6.93992C647.663 6.93992 649.537 7.76636 651.079 9.41923C652.622 11.0501 653.393 13.0886 653.393 15.5348C653.393 17.9811 652.622 20.0307 651.079 21.6835C649.537 23.3144 647.663 24.1298 645.46 24.1298C643.895 24.1298 642.55 23.7441 641.427 22.9728C640.303 22.2014 639.564 21.375 639.212 20.4935H639.179V30.0801H637.195ZM640.997 10.7085C639.785 11.9867 639.179 13.5955 639.179 15.5348C639.179 17.4742 639.785 19.094 640.997 20.3943C642.231 21.6725 643.663 22.3116 645.294 22.3116C646.969 22.3116 648.402 21.6725 649.592 20.3943C650.804 19.094 651.41 17.4742 651.41 15.5348C651.41 13.5955 650.804 11.9867 649.592 10.7085C648.402 9.40821 646.969 8.75808 645.294 8.75808C643.663 8.75808 642.231 9.40821 640.997 10.7085ZM3.06345 64.6835C1.49873 63.0307 0.716373 60.9811 0.716373 58.5348C0.716373 56.0886 1.49873 54.0501 3.06345 52.4192C4.6502 50.7664 6.56753 49.9399 8.81543 49.9399C11.438 49.9399 13.5206 50.9096 15.0633 52.849C15.7465 53.6864 16.2533 54.6451 16.5839 55.725H14.6005C14.2919 54.9536 13.8842 54.2925 13.3774 53.7415C12.2314 52.4192 10.7107 51.7581 8.81543 51.7581C7.14053 51.7581 5.69702 52.4082 4.48492 53.7085C3.29485 54.9867 2.69982 56.5955 2.69982 58.5348C2.69982 60.4742 3.29485 62.094 4.48492 63.3943C5.69702 64.6725 7.14053 65.3116 8.81543 65.3116C10.7328 65.3116 12.2975 64.5954 13.5096 63.1629C14.0826 62.5017 14.5013 61.7855 14.7658 61.0142H16.7492C16.4186 62.1381 15.9007 63.1629 15.1955 64.0885C13.5206 66.116 11.3939 67.1298 8.81543 67.1298C6.56753 67.1298 4.6502 66.3144 3.06345 64.6835ZM20.7264 66.7992V50.2705H28.4949C30.0596 50.2705 31.2717 50.6672 32.1312 51.4606C33.0128 52.2539 33.4535 53.2897 33.4535 54.568C33.4535 56.2429 32.6271 57.3889 30.9742 58.0059V58.039C31.0403 58.039 31.1726 58.072 31.3709 58.1382C31.5693 58.2043 31.8227 58.3365 32.1312 58.5348C32.4618 58.7332 32.7703 58.9756 33.0568 59.2621C33.3433 59.5486 33.5858 59.9453 33.7841 60.4522C34.0045 60.9591 34.1147 61.532 34.1147 62.1712C34.1147 63.5375 33.6188 64.6505 32.6271 65.51C31.6574 66.3694 30.291 66.7992 28.528 66.7992H20.7264ZM22.7099 57.2125H28.4949C29.4646 57.2125 30.2029 56.9922 30.7098 56.5514C31.2166 56.1106 31.4701 55.5046 31.4701 54.7332C31.4701 52.9702 30.4784 52.0887 28.4949 52.0887H22.7099V57.2125ZM22.7099 64.981H28.4949C30.9191 64.981 32.1312 63.9893 32.1312 62.0059C32.1312 60.0224 30.9191 59.0307 28.4949 59.0307H22.7099V64.981ZM39.5121 64.6835C37.9033 63.0527 37.0989 61.0031 37.0989 58.5348C37.0989 56.0666 37.9033 54.017 39.5121 52.3862C41.1209 50.7553 43.1263 49.9399 45.5285 49.9399C47.9307 49.9399 49.9362 50.7553 51.545 52.3862C53.1537 54.017 53.9581 56.0666 53.9581 58.5348C53.9581 61.0031 53.1537 63.0527 51.545 64.6835C49.9362 66.3144 47.9307 67.1298 45.5285 67.1298C43.1263 67.1298 41.1209 66.3144 39.5121 64.6835ZM40.9335 53.6754C39.6994 54.9536 39.0823 56.5734 39.0823 58.5348C39.0823 60.4963 39.6994 62.1161 40.9335 63.3943C42.1677 64.6725 43.6993 65.3116 45.5285 65.3116C47.3577 65.3116 48.8893 64.6725 50.1235 63.3943C51.3576 62.1161 51.9747 60.4963 51.9747 58.5348C51.9747 56.5734 51.3576 54.9536 50.1235 53.6754C48.8893 52.3972 47.3577 51.7581 45.5285 51.7581C43.6993 51.7581 42.1677 52.3972 40.9335 53.6754ZM59.3005 64.6835C57.7138 63.0527 56.9204 61.0031 56.9204 58.5348C56.9204 56.0666 57.7138 54.017 59.3005 52.3862C60.8873 50.7553 62.8487 49.9399 65.1847 49.9399C67.4988 49.9399 69.4492 50.7553 71.0359 52.3862C72.6447 53.995 73.4491 55.9894 73.4491 58.3696V59.196H58.9038C58.992 60.937 59.6311 62.3915 60.8212 63.5596C62.0112 64.7276 63.4658 65.3116 65.1847 65.3116C67.08 65.3116 68.6337 64.7056 69.8458 63.4935C70.4188 62.9645 70.8486 62.3585 71.1351 61.6753H73.1185C72.7218 62.7111 72.1599 63.6257 71.4326 64.4191C69.8018 66.2262 67.7191 67.1298 65.1847 67.1298C62.8487 67.1298 60.8873 66.3144 59.3005 64.6835ZM58.9038 57.3778H71.3004C71.1241 55.769 70.4629 54.4357 69.3169 53.3779C68.193 52.298 66.8156 51.7581 65.1847 51.7581C63.5539 51.7581 62.1655 52.287 61.0195 53.3448C59.8735 54.4027 59.1683 55.747 58.9038 57.3778ZM77.5761 66.7992V50.2705H88.6503V52.0887H79.5595V66.7992H77.5761ZM92.8752 64.6835C91.2664 63.0527 90.462 61.0031 90.462 58.5348C90.462 56.0666 91.2664 54.017 92.8752 52.3862C94.484 50.7553 96.4895 49.9399 98.8917 49.9399C101.294 49.9399 103.299 50.7553 104.908 52.3862C106.517 54.017 107.321 56.0666 107.321 58.5348C107.321 61.0031 106.517 63.0527 104.908 64.6835C103.299 66.3144 101.294 67.1298 98.8917 67.1298C96.4895 67.1298 94.484 66.3144 92.8752 64.6835ZM94.2967 53.6754C93.0625 54.9536 92.4455 56.5734 92.4455 58.5348C92.4455 60.4963 93.0625 62.1161 94.2967 63.3943C95.5308 64.6725 97.0625 65.3116 98.8917 65.3116C100.721 65.3116 102.252 64.6725 103.487 63.3943C104.721 62.1161 105.338 60.4963 105.338 58.5348C105.338 56.5734 104.721 54.9536 103.487 53.6754C102.252 52.3972 100.721 51.7581 98.8917 51.7581C97.0625 51.7581 95.5308 52.3972 94.2967 53.6754ZM119.714 57.3778C119.714 52.5735 120.584 49.0915 122.325 46.9317C124.066 44.7499 126.612 43.659 129.962 43.659H134.094V45.4772H130.127C127.504 45.4772 125.499 46.2265 124.111 47.7251C122.722 49.2016 121.907 51.5377 121.664 54.7332H121.697C122.072 54.1382 122.535 53.6203 123.086 53.1795C124.364 52.1217 125.94 51.5928 127.813 51.5928C129.885 51.5928 131.67 52.3531 133.168 53.8738C134.667 55.3944 135.416 57.2236 135.416 59.3613C135.416 61.521 134.645 63.3612 133.102 64.8819C131.582 66.3805 129.708 67.1298 127.482 67.1298C125.08 67.1298 123.185 66.3144 121.797 64.6835C120.408 63.0307 119.714 60.5954 119.714 57.3778ZM121.697 58.9646C121.697 60.8599 122.237 62.3915 123.317 63.5596C124.419 64.7276 125.808 65.3116 127.482 65.3116C129.135 65.3116 130.535 64.7276 131.681 63.5596C132.849 62.3915 133.433 60.9701 133.433 59.2952C133.433 57.6643 132.849 56.2759 131.681 55.1299C130.535 53.9839 129.135 53.4109 127.482 53.4109C125.852 53.4109 124.474 53.9509 123.35 55.0308C122.248 56.1106 121.697 57.4219 121.697 58.9646ZM140.46 64.6835C138.851 63.0527 138.047 61.0031 138.047 58.5348C138.047 56.0666 138.851 54.017 140.46 52.3862C142.069 50.7553 144.074 49.9399 146.476 49.9399C148.878 49.9399 150.884 50.7553 152.493 52.3862C154.101 54.017 154.906 56.0666 154.906 58.5348C154.906 61.0031 154.101 63.0527 152.493 64.6835C150.884 66.3144 148.878 67.1298 146.476 67.1298C144.074 67.1298 142.069 66.3144 140.46 64.6835ZM141.881 53.6754C140.647 54.9536 140.03 56.5734 140.03 58.5348C140.03 60.4963 140.647 62.1161 141.881 63.3943C143.115 64.6725 144.647 65.3116 146.476 65.3116C148.305 65.3116 149.837 64.6725 151.071 63.3943C152.305 62.1161 152.922 60.4963 152.922 58.5348C152.922 56.5734 152.305 54.9536 151.071 53.6754C149.837 52.3972 148.305 51.7581 146.476 51.7581C144.647 51.7581 143.115 52.3972 141.881 53.6754ZM159.025 66.7992V50.2705H161.009V57.5431H170.926V50.2705H172.909V66.7992H170.926V59.3613H161.009V66.7992H159.025ZM176.383 50.2705H178.532L182.333 64.981H185.474L189.771 50.2705H191.92L185.143 73.0801H182.994L184.978 66.7992H180.846L176.383 50.2705ZM196.081 64.6835C194.516 63.0307 193.734 60.9811 193.734 58.5348C193.734 56.0886 194.516 54.0501 196.081 52.4192C197.668 50.7664 199.585 49.9399 201.833 49.9399C204.456 49.9399 206.538 50.9096 208.081 52.849C208.764 53.6864 209.271 54.6451 209.602 55.725H207.618C207.31 54.9536 206.902 54.2925 206.395 53.7415C205.249 52.4192 203.728 51.7581 201.833 51.7581C200.158 51.7581 198.715 52.4082 197.503 53.7085C196.313 54.9867 195.718 56.5955 195.718 58.5348C195.718 60.4742 196.313 62.094 197.503 63.3943C198.715 64.6725 200.158 65.3116 201.833 65.3116C203.75 65.3116 205.315 64.5954 206.527 63.1629C207.1 62.5017 207.519 61.7855 207.783 61.0142H209.767C209.436 62.1381 208.918 63.1629 208.213 64.0885C206.538 66.116 204.412 67.1298 201.833 67.1298C199.585 67.1298 197.668 66.3144 196.081 64.6835ZM214.901 64.6835C213.358 63.0307 212.587 60.9811 212.587 58.5348C212.587 56.0886 213.358 54.0501 214.901 52.4192C216.444 50.7664 218.317 49.9399 220.521 49.9399C222.086 49.9399 223.408 50.3256 224.488 51.0969C225.568 51.8462 226.328 52.6727 226.769 53.5762H226.802V50.2705H228.785V66.7992H226.802V63.4935H226.769C226.328 64.397 225.568 65.2345 224.488 66.0058C223.408 66.7551 222.086 67.1298 220.521 67.1298C218.317 67.1298 216.444 66.3144 214.901 64.6835ZM216.356 53.7085C215.166 54.9867 214.571 56.5955 214.571 58.5348C214.571 60.4742 215.166 62.094 216.356 63.3943C217.568 64.6725 219.011 65.3116 220.686 65.3116C222.317 65.3116 223.738 64.6725 224.951 63.3943C226.185 62.094 226.802 60.4742 226.802 58.5348C226.802 56.5955 226.185 54.9867 224.951 53.7085C223.738 52.4082 222.317 51.7581 220.686 51.7581C219.011 51.7581 217.568 52.4082 216.356 53.7085Z" fill="white"/>
</svg>
