<svg width="715" height="31" viewBox="0 0 715 31" fill="none" xmlns="http://www.w3.org/2000/svg">
<path d="M0.889938 17.5541H6.01383C6.21218 18.1491 6.54275 18.678 7.00556 19.1409C8.04135 20.1767 9.52894 20.6946 11.4683 20.6946C12.9008 20.6946 13.9696 20.4301 14.6749 19.9012C15.4021 19.3502 15.7658 18.623 15.7658 17.7194C15.7658 15.9563 14.2782 15.0748 11.303 15.0748H8.16256V10.4468H11.303C13.8374 10.4468 15.1046 9.62032 15.1046 7.96746C15.1046 7.26223 14.7851 6.67822 14.146 6.21541C13.5068 5.73057 12.5592 5.48815 11.303 5.48815C9.65015 5.48815 8.38295 5.92891 7.50142 6.81045C7.10473 7.20713 6.82925 7.6479 6.67498 8.13274H1.55109C1.83758 6.81045 2.41058 5.59834 3.27007 4.49643C5.12128 2.07222 7.85403 0.860115 11.4683 0.860115C14.179 0.860115 16.3167 1.52126 17.8814 2.84356C19.4462 4.14382 20.2285 5.74159 20.2285 7.63688C20.2285 9.2016 19.6445 10.4798 18.4765 11.4715C18.0357 11.8462 17.4627 12.1657 16.7575 12.4302V12.7608C17.5068 12.9812 18.19 13.3338 18.807 13.8186C20.1955 14.8985 20.8897 16.364 20.8897 18.2152C20.8897 20.3089 20.0632 22.0168 18.4104 23.3391C16.7795 24.6614 14.4104 25.3226 11.303 25.3226C7.38021 25.3226 4.48217 24.0333 2.60892 21.4549C1.77147 20.3089 1.19847 19.0086 0.889938 17.5541ZM25.2584 22.7111C23.7818 21.0582 23.0436 18.8984 23.0436 16.2318C23.0436 13.5652 23.7818 11.4164 25.2584 9.78561C26.757 8.13274 28.6082 7.30631 30.812 7.30631C32.2886 7.30631 33.6219 7.74707 34.812 8.6286C35.3189 9.04733 35.7486 9.48809 36.1012 9.9509H36.2665V7.80217H40.8945V24.6614H36.2665V22.5127H36.1012C35.7486 22.9755 35.3189 23.4163 34.812 23.835C33.6219 24.7165 32.2886 25.1573 30.812 25.1573C28.6082 25.1573 26.757 24.3419 25.2584 22.7111ZM28.9939 12.5955C28.2225 13.477 27.8369 14.6891 27.8369 16.2318C27.8369 17.7745 28.2225 18.9866 28.9939 19.8681C29.7652 20.7496 30.7569 21.1904 31.9691 21.1904C33.2473 21.1904 34.2831 20.7607 35.0764 19.9012C35.8698 19.0196 36.2665 17.7965 36.2665 16.2318C36.2665 14.6671 35.8698 13.455 35.0764 12.5955C34.2831 11.714 33.2473 11.2732 31.9691 11.2732C30.7569 11.2732 29.7652 11.714 28.9939 12.5955ZM44.5309 30.9423V7.80217H49.1589V9.9509H49.3242C49.6768 9.48809 50.1065 9.04733 50.6134 8.6286C51.8035 7.74707 53.1368 7.30631 54.6134 7.30631C56.8172 7.30631 58.6574 8.13274 60.1339 9.78561C61.6326 11.4164 62.3819 13.5652 62.3819 16.2318C62.3819 18.8984 61.6326 21.0582 60.1339 22.7111C58.6574 24.3419 56.8172 25.1573 54.6134 25.1573C53.1368 25.1573 51.8035 24.7165 50.6134 23.835C50.1065 23.4163 49.6768 22.9755 49.3242 22.5127H49.1589V30.9423H44.5309ZM50.349 12.5955C49.5556 13.455 49.1589 14.6671 49.1589 16.2318C49.1589 17.7965 49.5556 19.0196 50.349 19.9012C51.1423 20.7607 52.1781 21.1904 53.4564 21.1904C54.6685 21.1904 55.6602 20.7496 56.4315 19.8681C57.2029 18.9866 57.5885 17.7745 57.5885 16.2318C57.5885 14.6891 57.2029 13.477 56.4315 12.5955C55.6602 11.714 54.6685 11.2732 53.4564 11.2732C52.1781 11.2732 51.1423 11.714 50.349 12.5955ZM66.8115 22.5788C65.0705 20.8378 64.2 18.7221 64.2 16.2318C64.2 13.7415 65.0705 11.6368 66.8115 9.91784C68.5746 8.17682 70.7344 7.30631 73.2908 7.30631C75.8913 7.30631 78.029 8.1658 79.7039 9.88478C81.3788 11.6038 82.2163 13.7194 82.2163 16.2318V17.2235H68.9933C69.1696 18.3254 69.6655 19.2621 70.4809 20.0334C71.2963 20.8047 72.233 21.1904 73.2908 21.1904C74.4588 21.1904 75.4616 20.8598 76.299 20.1987C76.6296 19.9122 76.894 19.5816 77.0924 19.207H82.051C81.6764 20.3309 81.1254 21.3226 80.3981 22.1821C78.6351 24.1656 76.266 25.1573 73.2908 25.1573C70.7344 25.1573 68.5746 24.2978 66.8115 22.5788ZM69.1586 14.4136H77.2577C77.0814 13.5321 76.6296 12.7938 75.9023 12.1988C75.1971 11.5817 74.3266 11.2732 73.2908 11.2732C72.255 11.2732 71.3735 11.5707 70.6462 12.1657C69.9189 12.7608 69.4231 13.5101 69.1586 14.4136ZM85.0133 24.6614V7.80217H97.7404V11.7691H89.6413V24.6614H85.0133ZM99.8955 24.6614V7.80217H104.524V15.0748L104.358 18.05H104.689L111.466 7.80217H116.424V24.6614H111.796V17.3888L111.961 14.4136H111.631L104.854 24.6614H99.8955ZM121.692 22.5788C119.951 20.8378 119.08 18.7221 119.08 16.2318C119.08 13.7415 119.951 11.6368 121.692 9.91784C123.455 8.17682 125.615 7.30631 128.171 7.30631C131.235 7.30631 133.571 8.40822 135.179 10.612C135.907 11.5597 136.436 12.6616 136.766 13.9178H131.973C131.774 13.4329 131.51 12.9922 131.179 12.5955C130.342 11.714 129.339 11.2732 128.171 11.2732C127.003 11.2732 125.989 11.736 125.13 12.6616C124.292 13.5872 123.874 14.7773 123.874 16.2318C123.874 17.6863 124.292 18.8764 125.13 19.802C125.989 20.7276 127.003 21.1904 128.171 21.1904C129.339 21.1904 130.342 20.7496 131.179 19.8681C131.51 19.4714 131.774 19.0307 131.973 18.5458H136.766C136.458 19.824 135.951 20.926 135.246 21.8516C133.637 24.0554 131.279 25.1573 128.171 25.1573C125.615 25.1573 123.455 24.2978 121.692 22.5788ZM137.757 11.7691V7.80217H153.624V11.7691H148.004V24.6614H143.376V11.7691H137.757ZM155.615 30.9423V7.80217H160.243V9.9509H160.409C160.761 9.48809 161.191 9.04733 161.698 8.6286C162.888 7.74707 164.221 7.30631 165.698 7.30631C167.902 7.30631 169.742 8.13274 171.218 9.78561C172.717 11.4164 173.466 13.5652 173.466 16.2318C173.466 18.8984 172.717 21.0582 171.218 22.7111C169.742 24.3419 167.902 25.1573 165.698 25.1573C164.221 25.1573 162.888 24.7165 161.698 23.835C161.191 23.4163 160.761 22.9755 160.409 22.5127H160.243V30.9423H155.615ZM161.433 12.5955C160.64 13.455 160.243 14.6671 160.243 16.2318C160.243 17.7965 160.64 19.0196 161.433 19.9012C162.227 20.7607 163.263 21.1904 164.541 21.1904C165.753 21.1904 166.745 20.7496 167.516 19.8681C168.287 18.9866 168.673 17.7745 168.673 16.2318C168.673 14.6891 168.287 13.477 167.516 12.5955C166.745 11.714 165.753 11.2732 164.541 11.2732C163.263 11.2732 162.227 11.714 161.433 12.5955ZM176.276 24.6614V7.80217H180.904V15.0748L180.739 18.05H181.07L187.846 7.80217H192.805V24.6614H188.177V17.3888L188.342 14.4136H188.012L181.235 24.6614H176.276ZM196.453 30.9423V7.80217H201.081V9.9509H201.246C201.599 9.48809 202.028 9.04733 202.535 8.6286C203.725 7.74707 205.059 7.30631 206.535 7.30631C208.739 7.30631 210.579 8.13274 212.056 9.78561C213.555 11.4164 214.304 13.5652 214.304 16.2318C214.304 18.8984 213.555 21.0582 212.056 22.7111C210.579 24.3419 208.739 25.1573 206.535 25.1573C205.059 25.1573 203.725 24.7165 202.535 23.835C202.028 23.4163 201.599 22.9755 201.246 22.5127H201.081V30.9423H196.453ZM202.271 12.5955C201.478 13.455 201.081 14.6671 201.081 16.2318C201.081 17.7965 201.478 19.0196 202.271 19.9012C203.064 20.7607 204.1 21.1904 205.378 21.1904C206.59 21.1904 207.582 20.7496 208.353 19.8681C209.125 18.9866 209.51 17.7745 209.51 16.2318C209.51 14.6891 209.125 13.477 208.353 12.5955C207.582 11.714 206.59 11.2732 205.378 11.2732C204.1 11.2732 203.064 11.714 202.271 12.5955ZM215.142 7.80217H219.935L223.241 20.6946H224.563L228.2 7.80217H232.993L226.216 30.9423H221.423L223.241 24.6614H219.605L215.142 7.80217ZM234.805 24.6614V7.80217H239.433V15.0748L239.267 18.05H239.598L246.375 7.80217H251.333V24.6614H246.705V17.3888L246.871 14.4136H246.54L239.763 24.6614H234.805ZM237.78 1.0254H240.92C240.92 2.12731 241.636 2.67827 243.069 2.67827C244.501 2.67827 245.218 2.12731 245.218 1.0254H248.358C248.358 2.39177 247.895 3.48267 246.97 4.29808C246.066 5.09146 244.766 5.48815 243.069 5.48815C241.372 5.48815 240.061 5.09146 239.135 4.29808C238.232 3.48267 237.78 2.39177 237.78 1.0254ZM253.328 11.7691V7.80217H269.196V11.7691H263.576V24.6614H258.948V11.7691H253.328ZM272.807 22.5788C271.066 20.8378 270.195 18.7221 270.195 16.2318C270.195 13.7415 271.066 11.6368 272.807 9.91784C274.57 8.17682 276.73 7.30631 279.286 7.30631C281.887 7.30631 284.024 8.1658 285.699 9.88478C287.374 11.6038 288.212 13.7194 288.212 16.2318V17.2235H274.989C275.165 18.3254 275.661 19.2621 276.476 20.0334C277.292 20.8047 278.228 21.1904 279.286 21.1904C280.454 21.1904 281.457 20.8598 282.294 20.1987C282.625 19.9122 282.889 19.5816 283.088 19.207H288.046C287.672 20.3309 287.121 21.3226 286.393 22.1821C284.63 24.1656 282.261 25.1573 279.286 25.1573C276.73 25.1573 274.57 24.2978 272.807 22.5788ZM275.154 14.4136H283.253C283.077 13.5321 282.625 12.7938 281.898 12.1988C281.192 11.5817 280.322 11.2732 279.286 11.2732C278.25 11.2732 277.369 11.5707 276.642 12.1657C275.914 12.7608 275.418 13.5101 275.154 14.4136ZM292.628 22.5788C290.887 20.8378 290.017 18.7221 290.017 16.2318C290.017 13.7415 290.887 11.6368 292.628 9.91784C294.391 8.17682 296.551 7.30631 299.108 7.30631C302.171 7.30631 304.507 8.40822 306.116 10.612C306.843 11.5597 307.372 12.6616 307.703 13.9178H302.909C302.711 13.4329 302.446 12.9922 302.116 12.5955C301.278 11.714 300.276 11.2732 299.108 11.2732C297.94 11.2732 296.926 11.736 296.066 12.6616C295.229 13.5872 294.81 14.7773 294.81 16.2318C294.81 17.6863 295.229 18.8764 296.066 19.802C296.926 20.7276 297.94 21.1904 299.108 21.1904C300.276 21.1904 301.278 20.7496 302.116 19.8681C302.446 19.4714 302.711 19.0307 302.909 18.5458H307.703C307.394 19.824 306.887 20.926 306.182 21.8516C304.573 24.0554 302.215 25.1573 299.108 25.1573C296.551 25.1573 294.391 24.2978 292.628 22.5788ZM310.346 24.6614V7.80217H314.974V13.0913H318.776C320.781 13.0913 322.412 13.6533 323.668 14.7773C324.924 15.9012 325.552 17.2676 325.552 18.8764C325.552 20.4852 324.924 21.8516 323.668 22.9755C322.412 24.0995 320.781 24.6614 318.776 24.6614H310.346ZM314.974 20.8598H318.445C319.172 20.8598 319.734 20.6835 320.131 20.3309C320.55 19.9563 320.759 19.4714 320.759 18.8764C320.759 18.2814 320.55 17.8075 320.131 17.4549C319.734 17.0803 319.172 16.893 318.445 16.893H314.974V20.8598ZM338.128 24.6614V8.13274H340.112V21.521L340.079 21.8516H340.112L349.698 8.13274H352.012V24.6614H350.029V11.2732L350.062 10.9426H350.029L340.442 24.6614H338.128ZM366.569 24.6614V8.13274H380.288V24.6614H378.305V9.9509H368.553V24.6614H366.569ZM386.84 22.5458C385.231 20.9149 384.427 18.8654 384.427 16.3971C384.427 13.9288 385.231 11.8792 386.84 10.2484C388.449 8.61758 390.454 7.80217 392.856 7.80217C395.259 7.80217 397.264 8.61758 398.873 10.2484C400.482 11.8792 401.286 13.9288 401.286 16.3971C401.286 18.8654 400.482 20.9149 398.873 22.5458C397.264 24.1766 395.259 24.992 392.856 24.992C390.454 24.992 388.449 24.1766 386.84 22.5458ZM388.261 11.5377C387.027 12.8159 386.41 14.4357 386.41 16.3971C386.41 18.3585 387.027 19.9783 388.261 21.2565C389.496 22.5347 391.027 23.1739 392.856 23.1739C394.686 23.1739 396.217 22.5347 397.451 21.2565C398.685 19.9783 399.303 18.3585 399.303 16.3971C399.303 14.4357 398.685 12.8159 397.451 11.5377C396.217 10.2594 394.686 9.62032 392.856 9.62032C391.027 9.62032 389.496 10.2594 388.261 11.5377ZM402.926 28.6283V22.8433H404.744L408.711 8.13274H414.992L418.959 22.8433H420.777V28.6283H418.959V24.6614H404.744V28.6283H402.926ZM406.728 22.8433H416.975L413.504 9.9509H410.199L406.728 22.8433ZM420.455 9.9509V8.13274H434.339V9.9509H428.389V24.6614H426.406V9.9509H420.455ZM437.139 24.6614V8.13274H444.908C446.472 8.13274 447.684 8.52943 448.544 9.32281C449.425 10.1162 449.866 11.152 449.866 12.4302C449.866 14.1051 449.04 15.2511 447.387 15.8682V15.9012C447.453 15.9012 447.585 15.9343 447.784 16.0004C447.982 16.0665 448.235 16.1987 448.544 16.3971C448.874 16.5954 449.183 16.8379 449.469 17.1244C449.756 17.4108 449.998 17.8075 450.197 18.3144C450.417 18.8213 450.527 19.3943 450.527 20.0334C450.527 21.3998 450.031 22.5127 449.04 23.3722C448.07 24.2317 446.704 24.6614 444.941 24.6614H437.139ZM439.122 15.0748H444.908C445.877 15.0748 446.615 14.8544 447.122 14.4136C447.629 13.9729 447.883 13.3668 447.883 12.5955C447.883 10.8324 446.891 9.9509 444.908 9.9509H439.122V15.0748ZM439.122 22.8433H444.908C447.332 22.8433 448.544 21.8516 448.544 19.8681C448.544 17.8847 447.332 16.893 444.908 16.893H439.122V22.8433ZM455.892 22.5458C454.305 20.9149 453.511 18.8654 453.511 16.3971C453.511 13.9288 454.305 11.8792 455.892 10.2484C457.478 8.61758 459.44 7.80217 461.776 7.80217C464.09 7.80217 466.04 8.61758 467.627 10.2484C469.236 11.8572 470.04 13.8517 470.04 16.2318V17.0582H455.495C455.583 18.7993 456.222 20.2538 457.412 21.4218C458.602 22.5898 460.057 23.1739 461.776 23.1739C463.671 23.1739 465.225 22.5678 466.437 21.3557C467.01 20.8268 467.44 20.2207 467.726 19.5375H469.71C469.313 20.5733 468.751 21.4879 468.024 22.2813C466.393 24.0884 464.31 24.992 461.776 24.992C459.44 24.992 457.478 24.1766 455.892 22.5458ZM455.495 15.2401H467.891C467.715 13.6313 467.054 12.298 465.908 11.2401C464.784 10.1603 463.407 9.62032 461.776 9.62032C460.145 9.62032 458.757 10.1492 457.611 11.2071C456.465 12.2649 455.759 13.6092 455.495 15.2401ZM474.167 30.9423V8.13274H476.151V11.4385H476.184C476.536 10.557 477.275 9.73052 478.399 8.95918C479.523 8.18784 480.867 7.80217 482.432 7.80217C484.635 7.80217 486.509 8.6286 488.051 10.2815C489.594 11.9123 490.365 13.9508 490.365 16.3971C490.365 18.8433 489.594 20.8929 488.051 22.5458C486.509 24.1766 484.635 24.992 482.432 24.992C480.867 24.992 479.523 24.6063 478.399 23.835C477.275 23.0637 476.536 22.2372 476.184 21.3557H476.151V30.9423H474.167ZM477.969 11.5707C476.757 12.8489 476.151 14.4577 476.151 16.3971C476.151 18.3365 476.757 19.9563 477.969 21.2565C479.203 22.5347 480.635 23.1739 482.266 23.1739C483.941 23.1739 485.374 22.5347 486.564 21.2565C487.776 19.9563 488.382 18.3365 488.382 16.3971C488.382 14.4577 487.776 12.8489 486.564 11.5707C485.374 10.2705 483.941 9.62032 482.266 9.62032C480.635 9.62032 479.203 10.2705 477.969 11.5707ZM492.026 28.6283V22.8433H493.844L497.811 8.13274H504.092L508.059 22.8433H509.877V28.6283H508.059V24.6614H493.844V28.6283H492.026ZM495.828 22.8433H506.075L502.604 9.9509H499.299L495.828 22.8433ZM512.68 24.6614V8.13274H514.664V21.521L514.631 21.8516H514.664L524.25 8.13274H526.564V24.6614H524.581V11.2732L524.614 10.9426H524.581L514.994 24.6614H512.68ZM529.377 9.9509V8.13274H543.261V9.9509H537.311V24.6614H535.327V9.9509H529.377ZM547.284 22.5458C545.697 20.9149 544.904 18.8654 544.904 16.3971C544.904 13.9288 545.697 11.8792 547.284 10.2484C548.87 8.61758 550.832 7.80217 553.168 7.80217C555.482 7.80217 557.432 8.61758 559.019 10.2484C560.628 11.8572 561.432 13.8517 561.432 16.2318V17.0582H546.887C546.975 18.7993 547.614 20.2538 548.804 21.4218C549.994 22.5898 551.449 23.1739 553.168 23.1739C555.063 23.1739 556.617 22.5678 557.829 21.3557C558.402 20.8268 558.832 20.2207 559.118 19.5375H561.102C560.705 20.5733 560.143 21.4879 559.416 22.2813C557.785 24.0884 555.702 24.992 553.168 24.992C550.832 24.992 548.87 24.1766 547.284 22.5458ZM546.887 15.2401H559.284C559.107 13.6313 558.446 12.298 557.3 11.2401C556.176 10.1603 554.799 9.62032 553.168 9.62032C551.537 9.62032 550.149 10.1492 549.003 11.2071C547.857 12.2649 547.151 13.6092 546.887 15.2401ZM572.841 24.6614L577.469 8.13274H583.915L588.543 24.6614H586.56L582.428 9.9509H578.957L574.824 24.6614H572.841ZM591.837 24.6614V8.13274H593.821V21.521L593.788 21.8516H593.821L603.407 8.13274H605.721V24.6614H603.738V11.2732L603.771 10.9426H603.738L594.151 24.6614H591.837ZM610.517 13.9178V8.13274H612.501V13.9178C612.501 16.5624 613.878 17.8847 616.633 17.8847C617.933 17.8847 619.178 17.6423 620.368 17.1574C620.963 16.893 621.426 16.6395 621.757 16.3971V8.13274H623.74V24.6614H621.757V18.2152C621.426 18.4577 620.963 18.7111 620.368 18.9756C619.178 19.4604 617.933 19.7028 616.633 19.7028C614.738 19.7028 613.239 19.1849 612.137 18.1491C611.057 17.0913 610.517 15.6808 610.517 13.9178ZM629.027 24.6614V8.13274H631.01V15.4054H640.928V8.13274H642.911V24.6614H640.928V17.2235H631.01V24.6614H629.027ZM649.459 22.5458C647.85 20.9149 647.046 18.8654 647.046 16.3971C647.046 13.9288 647.85 11.8792 649.459 10.2484C651.068 8.61758 653.073 7.80217 655.475 7.80217C657.878 7.80217 659.883 8.61758 661.492 10.2484C663.101 11.8792 663.905 13.9288 663.905 16.3971C663.905 18.8654 663.101 20.9149 661.492 22.5458C659.883 24.1766 657.878 24.992 655.475 24.992C653.073 24.992 651.068 24.1766 649.459 22.5458ZM650.88 11.5377C649.646 12.8159 649.029 14.4357 649.029 16.3971C649.029 18.3585 649.646 19.9783 650.88 21.2565C652.115 22.5347 653.646 23.1739 655.475 23.1739C657.305 23.1739 658.836 22.5347 660.07 21.2565C661.304 19.9783 661.922 18.3585 661.922 16.3971C661.922 14.4357 661.304 12.8159 660.07 11.5377C658.836 10.2594 657.305 9.62032 655.475 9.62032C653.646 9.62032 652.115 10.2594 650.88 11.5377ZM669.214 22.5458C667.65 20.8929 666.867 18.8433 666.867 16.3971C666.867 13.9508 667.65 11.9123 669.214 10.2815C670.801 8.6286 672.718 7.80217 674.966 7.80217C677.589 7.80217 679.671 8.77185 681.214 10.7112C681.897 11.5487 682.404 12.5073 682.735 13.5872H680.751C680.443 12.8159 680.035 12.1547 679.528 11.6038C678.382 10.2815 676.862 9.62032 674.966 9.62032C673.291 9.62032 671.848 10.2705 670.636 11.5707C669.446 12.8489 668.851 14.4577 668.851 16.3971C668.851 18.3365 669.446 19.9563 670.636 21.2565C671.848 22.5347 673.291 23.1739 674.966 23.1739C676.884 23.1739 678.448 22.4576 679.66 21.0251C680.233 20.364 680.652 19.6477 680.917 18.8764H682.9C682.57 20.0003 682.052 21.0251 681.346 21.9507C679.671 23.9783 677.545 24.992 674.966 24.992C672.718 24.992 670.801 24.1766 669.214 22.5458ZM684.398 9.9509V8.13274H698.282V9.9509H692.332V24.6614H690.348V9.9509H684.398ZM701.082 24.6614V8.13274H703.065V14.0831H708.189C709.974 14.0831 711.407 14.59 712.486 15.6037C713.588 16.5954 714.139 17.8516 714.139 19.3723C714.139 20.8929 713.588 22.1601 712.486 23.1739C711.407 24.1656 709.974 24.6614 708.189 24.6614H701.082ZM703.065 22.8433H708.189C709.423 22.8433 710.393 22.5237 711.098 21.8846C711.803 21.2235 712.156 20.386 712.156 19.3723C712.156 18.3585 711.803 17.5321 711.098 16.893C710.393 16.2318 709.423 15.9012 708.189 15.9012H703.065V22.8433Z" fill="white"/>
</svg>
